<svg xmlns="http://www.w3.org/2000/svg" xmlns:xlink="http://www.w3.org/1999/xlink" fill="none" version="1.1" width="24" height="24" viewBox="0 0 24 24"><defs><clipPath id="master_svg0_2393_119915"><rect x="0" y="0" width="24" height="24" rx="0"/></clipPath></defs><g clip-path="url(#master_svg0_2393_119915)"><g><path d="M22,12.000002Q22,12.245488,21.987957,12.490679Q21.97591,12.735869,21.951849,12.980174Q21.927786,13.224478,21.891764,13.467306Q21.855743,13.710135,21.807852,13.950905Q21.75996,14.191673,21.70031,14.429802Q21.640663,14.667933,21.569403,14.902848Q21.498142,15.137764,21.41544,15.368899Q21.332737,15.600036,21.238794,15.826836Q21.144852,16.053635999999997,21.039892,16.275553000000002Q20.934933,16.49747,20.819212,16.71397Q20.703491,16.93047,20.577284,17.141029Q20.451078,17.351589,20.314693,17.555704Q20.178308,17.759819,20.032074,17.956996Q19.885838,18.154173,19.730104,18.343937Q19.574369,18.533699,19.40951,18.715593Q19.244652,18.897486,19.071068,19.071072Q18.897482,19.244656,18.71559,19.409513Q18.533695,19.574373,18.343933,19.730108Q18.154169,19.885841,17.956992,20.032078Q17.759815,20.178312,17.5557,20.314697Q17.351585,20.451082,17.141026,20.577288Q16.930466,20.703495,16.713966,20.819216Q16.497466,20.934937,16.275550000000003,21.039896Q16.053632999999998,21.144855,15.826834,21.238798Q15.600034,21.332741,15.368897,21.415443Q15.137762,21.498146,14.902846,21.569407Q14.667931,21.640667,14.429801,21.700315Q14.191671,21.759964,13.950903,21.807856Q13.710133,21.855747,13.467304,21.891768Q13.224476,21.927788,12.980172,21.951851Q12.735868,21.975914,12.490677,21.987959Q12.245486,22.000004,12,22.000004Q11.7545137,22.000004,11.5093231,21.987959Q11.2641325,21.975914,11.0198288,21.951853Q10.7755241,21.92779,10.5326948,21.891769Q10.2898655,21.855747,10.0490961,21.807856Q9.8083267,21.759964,9.5701971,21.700315Q9.3320684,21.640667,9.097153200000001,21.569407Q8.862237,21.498146,8.6311011,21.415443Q8.3999648,21.332741,8.1731653,21.238798Q7.9463654,21.144855,7.7244492,21.039896Q7.502532,20.934937,7.2860327,20.819216Q7.0695333,20.703495,6.8589725,20.57729Q6.6484118,20.451082,6.4442973,20.314697Q6.2401829,20.178312,6.0430064,20.032078Q5.8458304000000005,19.885841,5.6560669,19.730106Q5.4663033,19.574371,5.284409999999999,19.409512Q5.1025168999999995,19.244654,4.928932,19.07107Q4.755347,18.897484,4.5904884,18.715591Q4.425630099999999,18.533699,4.2698953,18.343935Q4.1141605000000006,18.154171,3.9679244000000002,17.956995Q3.8216884,17.759818,3.6853036,17.555703Q3.5489186999999998,17.351589,3.4227135,17.141028Q3.2965086,16.930467999999998,3.1807872,16.713969Q3.0650659,16.497469000000002,2.96010691,16.275551Q2.85514808,16.053635,2.76120454,15.826836Q2.667261,15.600036,2.5845592,15.3689Q2.50185746,15.137764,2.43059659,14.902848Q2.35933572,14.667933,2.29968745,14.429803Q2.24003914,14.191673,2.19214717,13.950905Q2.14425519,13.710135,2.10823488,13.467306Q2.072214581,13.224477,2.04815273,12.980173Q2.024090873,12.735868,2.012045437,12.490679Q2,12.245488,2,12.000002Q2,11.7545156,2.012045437,11.509325Q2.024090873,11.2641344,2.04815273,11.0198307Q2.072214581,10.775526,2.10823488,10.5326977Q2.14425519,10.2898674,2.19214717,10.049099Q2.24003914,9.8083296,2.29968742,9.5702Q2.35933572,9.3320704,2.43059659,9.0971546Q2.50185746,8.862238900000001,2.58455926,8.6311021Q2.667261,8.3999662,2.76120454,8.1731663Q2.85514808,7.9463663,2.96010691,7.7244496Q3.0650659,7.502533,3.1807872,7.2860336Q3.2965086,7.0695343,3.4227138,6.8589735Q3.5489186999999998,6.6484127,3.6853036,6.4442983Q3.8216884,6.2401838,3.9679244000000002,6.0430079Q4.1141605000000006,5.8458314,4.2698953,5.656067800000001Q4.425630099999999,5.4663043,4.5904884,5.284411Q4.755347,5.1025176000000005,4.928932,4.9289327Q5.1025168999999995,4.7553477,5.284409999999999,4.5904891Q5.4663036,4.4256306,5.6560671,4.269896Q5.8458304000000005,4.114161,6.0430069,3.9679248Q6.2401829,3.8216889,6.4442973,3.685304Q6.6484118,3.5489192000000003,6.8589725,3.4227141000000003Q7.0695333,3.296509,7.2860327,3.1807876Q7.502532,3.0650661,7.7244482,2.96010721Q7.9463654,2.85514832,8.1731648,2.76120472Q8.3999643,2.66726124,8.631100700000001,2.58455938Q8.862237,2.5018575800000002,9.097153200000001,2.43059671Q9.3320689,2.35933578,9.570198099999999,2.2996875Q9.8083277,2.2400392,10.0490971,2.19214721Q10.2898655,2.14425522,10.5326948,2.10823491Q10.7755241,2.072214603,11.0198288,2.048152741Q11.2641325,2.024090879,11.5093231,2.012045439Q11.7545137,2,12,2Q12.245486,2,12.490677,2.012045439Q12.735868,2.024090879,12.980172,2.048152741Q13.224476,2.072214603,13.467304,2.10823491Q13.710133,2.14425522,13.950903,2.19214721Q14.191671,2.2400392,14.429801,2.2996875Q14.667931,2.35933578,14.902846,2.43059671Q15.137762,2.5018575800000002,15.368898,2.58455944Q15.600033,2.66726124,15.826833,2.76120472Q16.053632999999998,2.85514832,16.275548999999998,2.96010721Q16.497466,3.0650661,16.713966,3.1807876Q16.930466,3.296509,17.141026,3.422714Q17.351585,3.5489192000000003,17.5557,3.6853039Q17.759815,3.8216889,17.956991000000002,3.9679248Q18.154167,4.114161,18.343931,4.269896Q18.533695,4.4256306,18.715588,4.5904891Q18.897482,4.7553477,19.071068,4.9289327Q19.244652,5.1025176000000005,19.409512,5.284411Q19.574371,5.4663043,19.730106,5.656067800000001Q19.885841,5.8458314,20.032076,6.0430074Q20.17831,6.2401838,20.314695,6.4442983Q20.45108,6.6484127,20.577286,6.8589735Q20.703491,7.0695343,20.819212,7.2860336Q20.934933,7.502533,21.039892,7.7244496Q21.144852,7.9463663,21.238794,8.1731663Q21.332737,8.3999662,21.41544,8.6311021Q21.498142,8.862238900000001,21.569403,9.0971546Q21.640663,9.3320704,21.700314,9.570198999999999Q21.75996,9.8083286,21.807854,10.049098Q21.855745,10.2898674,21.891766,10.5326967Q21.927788,10.775526,21.951849,11.0198307Q21.97591,11.2641344,21.987957,11.509325Q22,11.7545156,22,12.000002ZM20,12.000002Q20,11.8036137,19.990364,11.60746Q19.980728,11.4113083,19.961479,11.2158651Q19.94223,11.020422,19.913414,10.8261585Q19.884596,10.6318951,19.846283,10.4392786Q19.807968,10.2466631,19.76025,10.05616Q19.712532,9.865656399999999,19.655523,9.677724399999999Q19.598513,9.4897919,19.532351,9.3048825Q19.466188,9.1199737,19.391035,8.9385338Q19.31588,8.757093900000001,19.231911,8.5795603Q19.147945,8.4020271,19.05537,8.228827500000001Q18.962791,8.0556278,18.861828,7.8871789Q18.760862,7.7187309,18.651754,7.555439Q18.542648,7.392148,18.425659,7.2344065Q18.30867,7.0766659,18.184084,6.9248548Q18.059494,6.7730436,17.927608,6.6275291Q17.795721,6.4820147,17.656854,6.3431463Q17.517984,6.204278,17.372471,6.0723915Q17.226955,5.940504600000001,17.075146,5.8159168Q16.923334,5.691329,16.765594,5.574340100000001Q16.607852,5.4573512,16.444561,5.348243200000001Q16.281269,5.2391353,16.112821,5.1381712Q15.944372,5.0372071,15.771173,4.9446300999999995Q15.597973,4.8520529,15.420439,4.7680857Q15.242906,4.6841185,15.061466,4.6089637Q14.880026,4.5338089,14.695118,4.467647599999999Q14.510208,4.4014862,14.322277,4.344477400000001Q14.134344,4.2874687,13.943841,4.2397501Q13.753338,4.192031399999999,13.560722,4.1537178Q13.368107,4.1154041,13.173843,4.0865879Q12.97958,4.0577717,12.784138,4.0385222Q12.588694,4.0192726,12.392541,4.0096364Q12.196388,4,12,4Q11.8036118,4,11.6074591,4.0096364Q11.4113064,4.0192726,11.2158632,4.0385222Q11.0204201,4.0577717,10.8261566,4.0865879Q10.6318932,4.1154041,10.4392767,4.1537178Q10.2466612,4.192031399999999,10.0561581,4.2397499Q9.865654,4.2874689,9.677722,4.3444777000000006Q9.489789,4.4014864,9.3048801,4.467647599999999Q9.1199713,4.5338089,8.938531399999999,4.6089637Q8.7570915,4.6841185,8.5795584,4.7680857Q8.4020252,4.8520529,8.2288256,4.9446300999999995Q8.055625899999999,5.0372071,7.8871775,5.1381712Q7.718729,5.2391353,7.5554376,5.348243200000001Q7.3921461,5.4573512,7.2344055,5.574340100000001Q7.076664,5.691329,6.9248533,5.815917Q6.7730427,5.940504600000001,6.6275282,6.0723915Q6.4820137,6.204278,6.3431454,6.3431463Q6.2042775,6.4820147,6.072391,6.6275291Q5.9405041,6.7730436,5.8159161,6.9248543Q5.6913283,7.0766649,5.5743396,7.2344065Q5.4573507,7.3921471,5.3482427999999995,7.5554385Q5.2391348,7.7187304,5.138171,7.8871794Q5.0372066,8.0556278,4.9446297,8.228827500000001Q4.8520527,8.4020271,4.7680855,8.5795603Q4.6841183,8.757093399999999,4.6089635,8.9385333Q4.5338087,9.1199732,4.467647100000001,9.304882Q4.4014859,9.4897909,4.3444772,9.6777239Q4.2874684,9.8656559,4.2397499,10.05616Q4.1920310999999995,10.2466631,4.1537175,10.4392786Q4.1154041,10.6318951,4.0865879,10.8261585Q4.0577717,11.020422,4.0385222,11.2158661Q4.0192726,11.4113083,4.0096364,11.607461Q4,11.8036137,4,12.000002Q4,12.196391,4.0096364,12.392544Q4.0192726,12.588696,4.0385222,12.78414Q4.0577717,12.979583,4.0865879,13.173846Q4.1154041,13.368109,4.1537175,13.560724Q4.1920310999999995,13.75334,4.2397499,13.943843Q4.2874684,14.134346,4.3444772,14.322279Q4.4014859,14.510211,4.467647100000001,14.69512Q4.5338087,14.880029,4.6089635,15.061469Q4.6841183,15.242908,4.7680855,15.420443Q4.8520527,15.597977,4.9446297,15.771175Q5.0372066,15.944375,5.138171,16.112823Q5.2391348,16.281271,5.3482427999999995,16.444563000000002Q5.4573507,16.607855,5.5743393999999995,16.765594999999998Q5.6913283,16.923338,5.8159161,17.075149Q5.9405041,17.226959,6.0723906,17.372474Q6.2042775,17.517988000000003,6.3431454,17.656857000000002Q6.4820137,17.795724999999997,6.6275282,17.92761Q6.7730427,18.059498,6.9248533,18.184086Q7.076664,18.308674,7.234405,18.425663Q7.3921461,18.542652,7.5554371,18.651758Q7.718729,18.760866,7.8871775,18.86183Q8.055625899999999,18.962793,8.2288256,19.05537Q8.4020252,19.147945,8.5795584,19.231915Q8.757092,19.31588,8.938531900000001,19.391037Q9.1199718,19.46619,9.3048811,19.532352Q9.48979,19.598515,9.6777225,19.655525Q9.8656549,19.712532,10.0561581,19.760252Q10.2466621,19.80797,10.4392776,19.846285Q10.6318932,19.884598,10.8261566,19.913414Q11.0204201,19.942232,11.2158642,19.961483Q11.4113064,19.980732,11.6074591,19.990368Q11.8036118,20.000004,12,20.000004Q12.196388,20.000004,12.392542,19.990368Q12.588694,19.980732,12.784138,19.961483Q12.97958,19.942232,13.173843,19.913416Q13.368106,19.884598,13.560721,19.846285Q13.753336,19.80797,13.943839,19.76025Q14.134342,19.712532,14.322275,19.655525Q14.510208,19.598515,14.695116,19.532352Q14.880026,19.46619,15.061465,19.391037Q15.242905,19.31588,15.420439,19.231915Q15.597973,19.147945,15.771173,19.05537Q15.944372,18.962793,16.11282,18.86183Q16.281268,18.760866,16.44456,18.651758Q16.607851,18.542652,16.765593000000003,18.425663Q16.923334,18.308674,17.075146,18.184086Q17.226955,18.059498,17.372471,17.92761Q17.517984,17.795724999999997,17.656854,17.656857000000002Q17.795721,17.517988000000003,17.927608,17.372475Q18.059494,17.226959,18.184084,17.07515Q18.308672,16.923338,18.425661,16.765594999999998Q18.542648,16.607855,18.651756,16.444563000000002Q18.760864,16.281271,18.861828,16.112823Q18.962791,15.944375,19.055368,15.771175Q19.147945,15.597976,19.231911,15.420442Q19.31588,15.242908,19.391035,15.061468Q19.466188,14.880028,19.532351,14.695119Q19.598511,14.51021,19.655521,14.322279Q19.71253,14.134346,19.76025,13.943843Q19.807968,13.75334,19.846283,13.560724Q19.884596,13.368109,19.913412,13.173846Q19.94223,12.979583,19.961479,12.78414Q19.980728,12.588696,19.990364,12.392544Q20,12.196391,20,12.000002Z" fill="#15181D" fill-opacity="1"/></g><g><rect x="11" y="7.5" width="2" height="9" rx="1" fill="#15181D" fill-opacity="1"/></g><g transform="matrix(0,1,-1,0,27.5,-5.5)"><rect x="16.5" y="11" width="2" height="9" rx="1" fill="#15181D" fill-opacity="1"/></g></g></svg>