<svg xmlns="http://www.w3.org/2000/svg" xmlns:xlink="http://www.w3.org/1999/xlink" fill="none"
    version="1.1" width="18.700000762939453" height="16.328125"
    viewBox="0 0 18.700000762939453 16.328125">
    <g>
        <path
            d="M9.3500004,0C12.6361,0,15.3,2.6932898,15.3,6.015625C15.3,6.0166006,15.3,6.0175757,15.299999,6.0185513C15.299919,6.191422,15.403756,6.3442035,15.563025,6.4114175C17.405212,7.1888518,18.700001,9.0275145,18.700001,11.171875C18.700001,14.019586,16.416645,16.328125,13.6,16.328125L5.0999999,16.328125C2.2833467,16.328125,0,14.019586,0,11.171875C0,9.0275145,1.2947561,7.1888518,3.1370008,6.411417C3.2962589,6.3442101,3.4000821,6.1914091,3.4000008,6.0185513C3.4000003,6.0175757,3.4000001,6.0166006,3.4000001,6.015625C3.4000001,2.6932898,6.0639091,0,9.3500004,0ZM9.3500004,1.71875C7.0027928,1.71875,5.0999999,3.64253,5.0999999,6.015625C5.0999999,6.085638,5.1016407,6.155385,5.1049132,6.2248306L5.1054931,6.2371407C5.1409116,6.9890466,4.6802549,7.6756096,3.9710557,7.927906C2.6217403,8.4078674,1.7,9.7013988,1.7,11.171875C1.7,13.07032,3.2222311,14.609375,5.0999999,14.609375L13.6,14.609375C15.477736,14.609375,17,13.07032,17,11.171875C17,9.2726564,15.478499,7.734375,13.6,7.734375C12.402195,7.734375,11.34911,8.3605776,10.743443,9.3068161C10.488829,9.7046032,10.009155,9.9616976,9.5615931,9.8108644C9.1182566,9.6614561,8.871376,9.1804905,9.0881195,8.765892C9.4781389,8.0198431,10.04392,7.382194,10.729675,6.9092684C12.095349,5.9674444,13.632595,4.4344335,12.544847,3.1818769C11.765918,2.2849305,10.623351,1.71875,9.3500004,1.71875Z"
            fill="#FFFFFF" fill-opacity="1" style="mix-blend-mode:passthrough" />
    </g>
</svg>