<svg xmlns="http://www.w3.org/2000/svg" xmlns:xlink="http://www.w3.org/1999/xlink" fill="none" version="1.1" width="18.600000381469727" height="16.328125" viewBox="0 0 18.600000381469727 16.328125"><g><path d="M9.3000002,0C12.568527,0,15.218182,2.6932898,15.218182,6.015625C15.218182,6.0166006,15.218182,6.0175757,15.218181,6.0185513C15.218101,6.1914907,15.320598,6.3438702,15.4798,6.4114175C17.312136,7.1888518,18.6,9.0275145,18.6,11.171875C18.6,14.019586,16.328856,16.328125,13.527273,16.328125L5.0727272,16.328125C2.2711363,16.328125,0,14.019586,0,11.171875C0,9.0275145,1.2878321,7.1888518,3.1202254,6.411417C3.2794166,6.3438768,3.3818998,6.1914778,3.381819,6.0185513C3.3818185,6.0175757,3.3818183,6.0166006,3.3818183,6.015625C3.3818183,2.6932898,6.0314817,0,9.3000002,0ZM9.3000002,1.71875C6.9653444,1.71875,5.0727272,3.64253,5.0727272,6.015625C5.0727272,6.085638,5.0743589,6.155385,5.0776143,6.2248306L5.0784717,6.2431335C5.1135483,6.9917798,4.655509,7.6755085,3.94982,7.927906C2.6077204,8.4078674,1.6909091,9.7013988,1.6909091,11.171875C1.6909091,13.07032,3.2049999,14.609375,5.0727272,14.609375L13.527273,14.609375C15.394968,14.609375,16.90909,13.07032,16.90909,11.171875C16.90909,9.2726564,15.395726,7.734375,13.527273,7.734375C12.335874,7.734375,11.288419,8.3605776,10.685991,9.3068161C10.432998,9.7041969,9.9540482,9.9611607,9.5078812,9.8099899C9.067934,9.6609259,8.8252211,9.1780205,9.0395203,8.765892C9.427454,8.0198431,9.9902086,7.382194,10.672297,6.9092684C12.033022,5.9658113,13.577662,4.4846163,12.509686,3.2192664C11.734396,2.3006935,10.584051,1.71875,9.3000002,1.71875Z" fill="#15181D" fill-opacity="1"/></g></svg>