<svg xmlns="http://www.w3.org/2000/svg" xmlns:xlink="http://www.w3.org/1999/xlink" fill="none" version="1.1" width="32" height="32" viewBox="0 0 32 32"><g><g><path d="M12.326433047683716,7.659748347683716L15.296282047683716,4.689899647683716Q17.785875047683717,2.200307130813716,21.306689047683715,2.200307607653716Q24.827506047683716,2.200307607653716,27.317096047683716,4.689899647683716Q29.806689047683715,7.179492247683716,29.806689047683715,10.700306147683715Q29.806689047683715,14.221123047683715,27.317096047683716,16.710715047683713L24.347247047683716,19.680564047683717C24.034829047683715,19.992982047683714,23.528297047683715,19.992984047683716,23.215879047683718,19.680564047683717L22.225928047683716,18.690614047683717C21.913509047683714,18.378194047683717,21.913509047683714,17.871661047683716,22.225928047683716,17.559243047683715L25.195777047683716,14.589394047683715Q26.806689047683715,12.978481047683715,26.806689047683715,10.700307147683716Q26.806689047683715,8.422133647683715,25.195777047683716,6.811219447683716Q23.584865047683717,5.200307647683716,21.306689047683715,5.200308047683716Q19.028514047683714,5.200307647683716,17.417602047683715,6.811219447683716L14.447753047683715,9.781068047683716C14.135335047683716,10.093487947683716,13.628802047683715,10.093487947683716,13.316383047683717,9.781068047683716L12.326433047683716,8.791118847683716C12.014014447683715,8.478699947683715,12.014014447683715,7.972167247683716,12.326433047683716,7.659748347683716ZM20.034949047683718,12.963416047683715L19.044999047683717,11.973466147683716Q18.932477047683715,11.860944947683716,18.785461047683714,11.800048147683716Q18.638442047683714,11.739152147683717,18.479314047683715,11.739152147683717Q18.320182047683716,11.739152147683717,18.173166047683715,11.800048147683716Q18.026149047683717,11.860944047683716,17.913629047683713,11.973467147683715L11.973932547683717,17.913163047683717Q11.861409447683716,18.025685047683716,11.800513547683716,18.172701047683717Q11.739616647683716,18.319717047683717,11.739617547683716,18.478849047683717Q11.739617547683716,18.637979047683714,11.800513547683716,18.784995047683715Q11.861409447683716,18.932012047683717,11.973931547683716,19.044534047683715L12.963882047683716,20.034484047683716Q13.019596047683716,20.090200047683716,13.085110047683715,20.133975047683716Q13.150623047683716,20.177749047683715,13.223418047683715,20.207900047683715Q13.296213047683716,20.238052047683716,13.373492047683715,20.253425047683717Q13.450772047683715,20.268796047683715,13.529566047683716,20.268796047683715Q13.608360047683716,20.268796047683715,13.685638047683716,20.253425047683717Q13.762917047683716,20.238052047683716,13.835712047683716,20.207900047683715Q13.908508047683716,20.177749047683715,13.974023047683716,20.133975047683716Q14.039537047683716,20.090200047683716,14.095252047683715,20.034484047683716L20.034949047683718,14.094787047683717Q20.090663047683716,14.039071047683716,20.134437047683715,13.973557047683716Q20.178212047683715,13.908042047683717,20.208366047683715,13.835246047683716Q20.238519047683717,13.762451047683715,20.253890047683715,13.685172047683716Q20.269263047683715,13.607894047683716,20.269263047683715,13.529101047683715Q20.269263047683715,13.450307047683715,20.253890047683715,13.373029047683715Q20.238519047683717,13.295749047683715,20.208366047683715,13.222954047683716Q20.178212047683715,13.150159047683715,20.134437047683715,13.084645047683717Q20.090663047683716,13.019132047683716,20.034949047683718,12.963416047683715ZM7.6594431476837155,12.327166047683717L4.689594547683716,15.297014047683716Q2.2000026702881157,17.786606047683716,2.2000026702881157,21.307422047683716Q2.2000026702881157,24.828237047683714,4.689594547683716,27.317828047683715Q7.1791880476837155,29.807422047683716,10.700002947683716,29.807422047683716Q14.220817047683715,29.807422047683716,16.710410047683716,27.317828047683715L19.680259047683716,24.347980047683716C19.992677047683717,24.035562047683715,19.992679047683716,23.529029047683714,19.680259047683716,23.216611047683717L18.690311047683714,22.226661047683717C18.377891047683715,21.914241047683717,17.871356047683715,21.914241047683717,17.558938047683718,22.226661047683717L14.589090047683715,25.196510047683716Q12.978177047683715,26.807422047683716,10.700002947683716,26.807422047683716Q8.421828547683717,26.807422047683716,6.810914247683716,25.196510047683716Q5.2000024476837154,23.585597047683716,5.2000024476837154,21.307422047683716Q5.2000024476837154,19.029247047683715,6.810914247683716,17.418334047683715L9.780762947683716,14.448486047683716C10.093182847683716,14.136068047683716,10.093182847683716,13.629535047683715,9.780762947683716,13.317115047683716L8.790813647683716,12.327166047683717C8.478394747683716,12.014746947683715,7.971862047683715,12.014746947683715,7.6594431476837155,12.327166047683717Z" fill-rule="evenodd" fill="#15181D" fill-opacity="1"/></g></g></svg>