<?xml version="1.0" standalone="no"?><!DOCTYPE svg PUBLIC "-//W3C//DTD SVG 1.1//EN" "http://www.w3.org/Graphics/SVG/1.1/DTD/svg11.dtd"><svg t="1764754827207" class="icon" viewBox="0 0 1024 1024" version="1.1" xmlns="http://www.w3.org/2000/svg" p-id="6117" xmlns:xlink="http://www.w3.org/1999/xlink" width="200" height="200"><path d="M535.272727 300.218182A114.967273 114.967273 0 1 1 649.541818 186.181818 114.967273 114.967273 0 0 1 535.272727 300.218182z m-244.363636 90.996363a104.96 104.96 0 1 1 104.727273-104.727272 104.96 104.96 0 0 1-104.727273 104.727272zM186.181818 628.363636a93.090909 93.090909 0 1 1 93.090909-93.090909 93.090909 93.090909 0 0 1-93.090909 93.090909z m103.796364 235.054546a78.429091 78.429091 0 1 1 78.429091-78.429091 78.429091 78.429091 0 0 1-78.429091 78.429091zM535.272727 954.181818a68.654545 68.654545 0 1 1 67.956364-69.818182A68.421818 68.421818 0 0 1 535.272727 954.181818z m248.087273-116.363636A55.389091 55.389091 0 1 1 837.818182 782.429091 55.156364 55.156364 0 0 1 782.894545 837.818182zM884.363636 581.818182a45.381818 45.381818 0 1 1 46.545455-45.381818A45.381818 45.381818 0 0 1 884.363636 581.818182z m-136.610909-292.072727a35.141818 35.141818 0 1 0 35.141818-35.141819 35.374545 35.374545 0 0 0-35.141818 35.141819z m0 0" fill="#2c2c2c" p-id="6118"></path></svg>