<svg xmlns="http://www.w3.org/2000/svg" xmlns:xlink="http://www.w3.org/1999/xlink" fill="none" version="1.1" width="32" height="32" viewBox="0 0 32 32"><g><g><path d="M15.296282047683716,4.689899647683716Q17.785875047683717,2.200307130813716,21.306689047683715,2.200307607653716Q24.827506047683716,2.200307607653716,27.317096047683716,4.689899647683716Q29.806689047683715,7.179492247683716,29.806689047683715,10.700306147683715Q29.806689047683715,14.221123047683715,27.317096047683716,16.710715047683713L23.781362047683714,20.246450047683716L24.983390047683717,21.448478047683714Q25.039104047683715,21.504192047683716,25.082877047683716,21.569703047683717Q25.126651047683715,21.635217047683717,25.156804047683718,21.708013047683714Q25.186958047683717,21.780807047683716,25.202327047683717,21.858087047683714Q25.217700047683717,21.935367047683716,25.217702047683716,22.014159047683716Q25.217700047683717,22.092952047683717,25.202329047683715,22.170230047683717Q25.186958047683717,22.247510047683715,25.156804047683718,22.320306047683715Q25.126651047683715,22.393100047683717,25.082877047683716,22.458615047683715Q25.039102047683716,22.524131047683717,24.983388047683714,22.579847047683717L23.993438047683714,23.569797047683714Q23.880916047683716,23.682319047683716,23.733899047683717,23.743215047683716Q23.586883047683717,23.804111047683715,23.427753047683716,23.804113047683717Q23.268623047683715,23.804111047683715,23.121606047683716,23.743213047683717Q22.974590047683716,23.682317047683714,22.862069047683715,23.569797047683714L8.437090147683715,9.144818547683716Q8.381374547683716,9.089102947683717,8.337599547683716,9.023588847683715Q8.293824447683715,8.958074847683715,8.263671147683716,8.885278947683716Q8.233518347683717,8.812484047683716,8.218146547683716,8.735204947683716Q8.202775247683716,8.657925847683716,8.202775247683716,8.579132747683715Q8.202774747683716,8.500339247683716,8.218146547683716,8.423060147683715Q8.233517847683716,8.345780647683716,8.263671147683716,8.272985647683715Q8.293823447683716,8.200190747683717,8.337599047683716,8.134676647683715Q8.381374147683715,8.069162647683715,8.437089647683717,8.013447547683715L9.427039347683717,7.023497847683716Q9.482753947683715,6.967782247683716,9.548268047683717,6.9240071476837155Q9.613782147683715,6.880232047683716,9.686577047683716,6.850078847683716Q9.759371947683716,6.819926547683716,9.836651047683716,6.804554247683716Q9.913930147683715,6.789182947683716,9.992723747683716,6.789182947683716Q10.071516747683717,6.789182947683716,10.148796347683716,6.804554747683715Q10.226075447683716,6.819926547683716,10.298871247683715,6.850079347683716Q10.371667147683716,6.880232047683716,10.437180747683716,6.9240071476837155Q10.502694347683716,6.967782247683716,10.558409947683716,7.023497847683716L11.760546947683716,8.225634847683715L15.296282047683716,4.689899647683716ZM13.881868047683716,10.346955547683717L21.660041047683716,18.125129047683714L25.195777047683716,14.589394047683715Q26.806689047683715,12.978481047683715,26.806689047683715,10.700307147683716Q26.806689047683715,8.422133647683715,25.195777047683716,6.811219447683716Q23.584865047683717,5.200307647683716,21.306689047683715,5.200308047683716Q19.028514047683714,5.200307647683716,17.417602047683715,6.811219447683716L13.881868047683716,10.346955547683717ZM7.6594431476837155,12.326189047683716L4.689594547683716,15.296038047683716Q2.2000026702881157,17.785629047683717,2.2000026702881157,21.306445047683717Q2.2000026702881157,24.827260047683716,4.689594547683716,27.316852047683717Q7.1791880476837155,29.806445047683717,10.700002947683716,29.806445047683717Q14.220817047683715,29.806445047683717,16.710410047683716,27.316852047683717L19.680259047683716,24.347003047683717C19.992677047683717,24.034585047683716,19.992679047683716,23.528053047683716,19.680259047683716,23.215635047683715L18.690311047683714,22.225684047683714C18.377891047683715,21.913264047683715,17.871356047683715,21.913264047683715,17.558938047683718,22.225684047683714L14.589090047683715,25.195533047683714Q12.978177047683715,26.806445047683717,10.700002947683716,26.806445047683717Q8.421828547683717,26.806445047683717,6.810914247683716,25.195533047683714Q5.2000024476837154,23.584621047683715,5.2000024476837154,21.306445047683717Q5.2000024476837154,19.028270047683716,6.810914247683716,17.417358047683717L9.780762947683716,14.447509047683717C10.093182847683716,14.135091047683716,10.093182847683716,13.628558047683716,9.780762947683716,13.316138047683715L8.790813647683716,12.326189047683716C8.478394747683716,12.013770347683716,7.971862047683715,12.013770347683716,7.6594431476837155,12.326189047683716Z" fill-rule="evenodd" fill="#F44755" fill-opacity="1"/></g></g></svg>