<svg xmlns="http://www.w3.org/2000/svg" xmlns:xlink="http://www.w3.org/1999/xlink" fill="none" version="1.1" width="78" height="62" viewBox="0 0 78 62"><defs><linearGradient x1="0" y1="0" x2="1.0874964269161318" y2="0.2793866798966107" id="master_svg0_2_170915"><stop offset="0%" stop-color="#FF9C55" stop-opacity="1"/><stop offset="100%" stop-color="#FFD977" stop-opacity="1"/></linearGradient><filter id="master_svg1_2432_118582" filterUnits="objectBoundingBox" color-interpolation-filters="sRGB" x="0" y="0" width="1" height="1"><feFlood flood-opacity="0" result="BackgroundImageFix"/><feBlend mode="normal" in="SourceGraphic" in2="BackgroundImageFix" result="shape"/><feGaussianBlur in="BackgroundImageFix" stdDeviation="20.2702693939209"/><feComposite in2="SourceAlpha" operator="in" result="effect1_foregroundBlur"/><feBlend mode="normal" in="SourceGraphic" in2="effect1_foregroundBlur" result="shape"/></filter><linearGradient x1="0" y1="0" x2="0.28700172901153564" y2="0.88665771484375" id="master_svg2_45_60351"><stop offset="0%" stop-color="#FFFFFF" stop-opacity="0.800000011920929"/><stop offset="100%" stop-color="#FFFFFF" stop-opacity="0"/></linearGradient><linearGradient x1="0.9088751673698425" y1="0.6006238460540771" x2="1" y2="1" id="master_svg3_45_60352"><stop offset="0%" stop-color="#FFFFFF" stop-opacity="0"/><stop offset="100%" stop-color="#FFFFFF" stop-opacity="0.5"/></linearGradient></defs><g><g><path d="M2.080000162124634,37.533337C2.080000162124634,43.056183,6.557152962124634,47.533337,12.080001162124633,47.533337L65.92000416212463,47.533337C71.44285416212463,47.533337,75.92000416212463,43.056183,75.92000416212463,37.533337L75.92000416212463,15.889072C75.92000416212463,10.366223,71.44284616212464,5.8890691,65.91999616212463,5.8890719L41.271929162124636,5.8890843C39.52570516212463,5.8890853,37.82744016212463,5.3177328,36.43632316212464,4.2622271L34.035072162124635,2.4402857C31.948399162124634,0.85702896,29.401001162124633,0,26.781668162124635,0L12.080001162124633,0C6.557152962124634,0,2.080000162124634,4.4771528,2.080000162124634,10.000002L2.080000162124634,37.533337Z" fill="url(#master_svg0_2_170915)" fill-opacity="1"/></g><g filter="url(#master_svg1_2432_118582)"><rect x="0" y="13.433333396911621" width="78" height="48.56666946411133" rx="10" fill="#CFCFCF" fill-opacity="0.20000000298023224"/><rect x="0.8108108043670654" y="14.244144201278687" width="76.37837839126587" height="46.9450478553772" rx="9.189189195632935" stroke="url(#master_svg2_45_60351)" fill-opacity="0" fill="none" stroke-width="1.6216216087341309"/><rect x="0.8108108043670654" y="14.244144201278687" width="76.37837839126587" height="46.9450478553772" rx="9.189189195632935" stroke="url(#master_svg3_45_60352)" fill-opacity="0" fill="none" stroke-width="1.6216216087341309"/><rect x="0.8108108043670654" y="14.244144201278687" width="76.37837839126587" height="46.9450478553772" rx="9.189189195632935" fill-opacity="0" stroke-opacity="0.05000000074505806" stroke="#FFFFFF" fill="none" stroke-width="1.6216216087341309"/></g><g style="opacity:0.699999988079071;"><rect x="10.40000057220459" y="23.76666831970215" width="16.64000129699707" height="1.5499999523162842" rx="0.7749999761581421" fill="#FFFFFF" fill-opacity="1"/></g><g style="opacity:0.699999988079071;"><rect x="10.40000057220459" y="29.450000762939453" width="16.64000129699707" height="1.5499999523162842" rx="0.7749999761581421" fill="#FFFFFF" fill-opacity="1"/></g></g></svg>