<svg xmlns="http://www.w3.org/2000/svg" xmlns:xlink="http://www.w3.org/1999/xlink" fill="none" version="1.1" width="14" height="12" viewBox="0 0 14 12"><g transform="matrix(1,0,0,-1,0,24)"><path d="M12.25,22.285714L12.25,18.8571429L12.25,22.285714L12.25,18.8571429L7.875,18.8571429L7.875,22.285714L12.25,22.285714ZM12.25,17.1428571L12.25,13.7142857L12.25,17.1428571L12.25,13.7142857L7.875,13.7142857L7.875,17.1428571L12.25,17.1428571ZM6.125,18.8571429L1.75,18.8571429L6.125,18.8571429L1.75,18.8571429L1.75,22.285714L6.125,22.285714L6.125,18.8571429ZM1.75,17.1428571L6.125,17.1428571L1.75,17.1428571L6.125,17.1428571L6.125,13.7142857L1.75,13.7142857L1.75,17.1428571ZM1.75,24Q1.0117188,23.973214,0.51953125,23.491072000000003Q0.02734375,23.008927999999997,0,22.285714L0,13.7142857Q0.02734375,12.99107146,0.51953125,12.5089286Q1.0117188,12.026785715,1.75,12L12.25,12Q12.988281,12.026785715,13.480469,12.5089286Q13.972656,12.99107146,14,13.7142857L14,22.285714Q13.972656,23.008927999999997,13.480469,23.491072000000003Q12.988281,23.973214,12.25,24L1.75,24Z" fill="#15181D" fill-opacity="1"/></g></svg>