<svg xmlns="http://www.w3.org/2000/svg" xmlns:xlink="http://www.w3.org/1999/xlink" fill="none" version="1.1" width="200" height="200" viewBox="0 0 200 200"><g><g><rect x="0" y="0" width="200" height="200" rx="100" fill="#FFAC00" fill-opacity="1"/></g><g><g><path d="M49.21875,144.99106608593752C49.21875,149.30579408593752,52.7165251,152.80356608593752,57.0312495,152.80356608593752L64.843749,152.80356608593752L72.656246,152.80356608593752C76.97097,152.80356608593752,80.468748,149.30579408593752,80.468748,144.99106608593752L80.468748,119.5642390859375C80.468748,114.0138240859375,83.065353,108.7830200859375,87.486435,105.4272570859375C94.645828,99.9930190859375,104.51745600000001,99.8818780859375,111.797382,105.1535490859375L112.04455899999999,105.33254208593749C116.747009,108.7377620859375,119.53125,114.1915170859375,119.53125,119.9974250859375L119.53125,144.99106608593752C119.53125,149.30579408593752,123.029022,152.80356608593752,127.34375,152.80356608593752L135.15625,152.80356608593752L142.96874200000002,152.80356608593752C147.28347,152.80356608593752,150.78125,149.30578608593748,150.78125,144.99105808593748L150.78125,138.90193208593752L150.78125,125.0003580859375L150.78125,111.0987850859375L150.78125,108.6525570859375C150.78125,101.4309920859375,147.421326,94.6205100859375,141.69065899999998,90.22614308593751L132.600021,83.2552930859375L114.418671,69.3135380859375L109.737549,65.72397658593749C103.733299,61.1198172859375,95.37590399999999,61.1564240859375,89.412216,65.8130030859375L86.744293,67.8961772859375L84.348221,69.7670840859375L79.284006,73.7213340859375L77.94373300000001,74.7678490859375L76.603477,75.8143500859375L74.379597,77.5508080859375L72.42227700000001,79.07912408593751L70.465153,80.6072920859375L67.809254,82.6810780859375L65.153561,84.7547000859375L59.841955,88.9021150859375L56.8638639,91.2274740859375C52.0389571,94.9948690859375,49.21875,100.77504008593749,49.21875,106.8965570859375L49.21875,115.9482800859375L49.21875,125.0003580859375L49.21875,138.90193208593752L49.21875,144.99106608593752Z" fill="#FFFFFF" fill-opacity="1"/></g></g><g><path d="M49.21875,87.77573018530273L80.468748,63.878671185302736L80.468748,55.376938785302734L80.468748,54.622980085302736C80.468748,50.34388638530273,76.999859,46.874996185302734,72.720764,46.874996185302734L64.972776,46.874996185302734L57.0957632,46.874996185302734C52.745408499999996,46.874996185302734,49.21875,50.40165468530273,49.21875,54.752008885302736L49.21875,57.100013185302736L49.21875,67.32538618530273L49.21875,87.77573018530273Z" fill="#FFFFFF" fill-opacity="1"/></g></g></svg>