<svg xmlns="http://www.w3.org/2000/svg" xmlns:xlink="http://www.w3.org/1999/xlink" fill="none" version="1.1" width="14" height="11.374999046325684" viewBox="0 0 14 11.374999046325684"><g transform="matrix(1,0,0,-1,0,22.749998092651367)"><path d="M0.67741925,22.749998046325686Q0.056451611,22.695311046325685,0,22.093749046325684L0,20.781248046325686Q0.056451611,20.179686546325684,0.67741925,20.124999046325684L2.032258,20.124999046325684Q2.6532254,20.179686546325684,2.709677,20.781248046325686L2.709677,22.093749046325684Q2.6532254,22.695311046325685,2.032258,22.749998046325686L0.67741925,22.749998046325686ZM4.967742,22.312499046325684Q4.5725799,22.312499046325684,4.3185482,22.066405046325684Q4.0645161,21.820311046325685,4.0645161,21.437499046325684Q4.0645161,21.054685546325686,4.3185482,20.808591846325683Q4.5725799,20.562499046325684,4.967742,20.562499046325684L13.096774,20.562499046325684Q13.491934,20.562499046325684,13.745966,20.808591846325683Q14,21.054685546325686,14,21.437499046325684Q14,21.820311046325685,13.745966,22.066405046325684Q13.491934,22.312499046325684,13.096774,22.312499046325684L4.967742,22.312499046325684ZM4.967742,17.937498546325685Q4.5725799,17.937498546325685,4.3185482,17.691405246325683Q4.0645161,17.445311546325684,4.0645161,17.062498546325685Q4.0645161,16.679686546325684,4.3185482,16.433592846325684Q4.5725799,16.187499046325684,4.967742,16.187499046325684L13.096774,16.187499046325684Q13.491934,16.187499046325684,13.745966,16.433592846325684Q14,16.679686546325684,14,17.062498546325685Q14,17.445311546325684,13.745966,17.691405246325683Q13.491934,17.937498546325685,13.096774,17.937498546325685L4.967742,17.937498546325685ZM4.967742,13.562499046325684Q4.5725799,13.562499046325684,4.3185482,13.316405146325684Q4.0645161,13.070311546325684,4.0645161,12.687498946325684Q4.0645161,12.304686546325684,4.3185482,12.058592796325684Q4.5725799,11.812499046325684,4.967742,11.812499046325684L13.096774,11.812499046325684Q13.491934,11.812499046325684,13.745966,12.058592796325684Q14,12.304686546325684,14,12.687498946325684Q14,13.070311546325684,13.745966,13.316405146325684Q13.491934,13.562499046325684,13.096774,13.562499046325684L4.967742,13.562499046325684ZM0,17.718749046325684L0,16.406249046325684L0,17.718749046325684L0,16.406249046325684Q0.056451611,15.804686046325685,0.67741925,15.749999046325684L2.032258,15.749999046325684Q2.6532254,15.804686046325685,2.709677,16.406249046325684L2.709677,17.718749046325684Q2.6532254,18.320311046325685,2.032258,18.374999046325684L0.67741925,18.374999046325684Q0.056451611,18.320311046325685,0,17.718749046325684ZM0.67741925,13.999998846325683Q0.056451611,13.945311346325683,0,13.343749046325684L0,12.031248986325684Q0.056451611,11.429686546325684,0.67741925,11.374999046325684L2.032258,11.374999046325684Q2.6532254,11.429686546325684,2.709677,12.031248986325684L2.709677,13.343749046325684Q2.6532254,13.945311346325683,2.032258,13.999998846325683L0.67741925,13.999998846325683Z" fill="#FFFFFF" fill-opacity="1"/></g></svg>