<svg xmlns="http://www.w3.org/2000/svg" xmlns:xlink="http://www.w3.org/1999/xlink" fill="none"
    version="1.1" width="15.136363983154297" height="15.187500953674316"
    viewBox="0 0 15.136363983154297 15.187500953674316">
    <g>
        <path
            d="M3.3636367,12.659092L3.3636367,10.96875C3.3636367,9.5707788,4.4969158,8.4375,5.894887,8.4375L9.241477,8.4375C10.639447,8.4375,11.772727,9.5707788,11.772727,10.96875L11.772727,12.659091C11.772727,13.123513,12.149215,13.500001,12.613637,13.500001C13.078059,13.500001,13.454547,13.123513,13.454547,12.659091L13.454547,5.7546129C13.454547,4.6783314,13.027935,3.6459303,12.268177,2.8835981C11.505054,2.1178889,10.468483,1.6875001,9.387434,1.6875001L7.588069,1.6875001C4.3261366,1.6875001,1.6818184,4.3318186,1.6818184,7.5937505L1.6818184,12.659092C1.6818184,13.123513,2.0583062,13.500001,2.5227275,13.500001C2.9871488,13.500001,3.3636367,13.123513,3.3636367,12.659092M0.84090918,0L9.3845739,0C10.913404,0,12.379333,0.60865629,13.458556,1.6915244C14.533033,2.7696314,15.136364,4.229681,15.136364,5.75179L15.136364,14.343751C15.136364,14.809752,14.75989,15.187501,14.295454,15.187501L0.84090918,15.187501C0.37649184,15.187501,0,14.809752,0,14.343751L0,0.84375006C0,0.37776378,0.37649184,0,0.84090918,0ZM5.0454545,11.8125C5.0454545,12.744481,5.8009744,13.500001,6.7329555,13.500001L8.4034081,13.500001C9.3353891,13.500001,10.090909,12.744481,10.090909,11.8125C10.090909,10.880519,9.3353891,10.124999,8.4034081,10.124999L6.7329555,10.124999C5.8009744,10.124999,5.0454545,10.880519,5.0454545,11.8125"
            fill="#FFFFFF" fill-opacity="1" style="mix-blend-mode:passthrough" />
    </g>
</svg>