<svg xmlns="http://www.w3.org/2000/svg" xmlns:xlink="http://www.w3.org/1999/xlink" fill="none" version="1.1" width="46" height="38" viewBox="0 0 46 38"><g><g><path d="M1,3.0000002L1,24.796661C1,25.830282,1.7876086199999999,26.693626,2.816888,26.788261L42.816887,30.465948C43.988823,30.573698,45,29.651226,45,28.474348L45,3.0000002C45,1.8954305599999999,44.104568,1,43,1L3.0000002,1C1.8954305599999999,1,1,1.8954305599999999,1,3.0000002Z" fill="#FFFFFF" fill-opacity="1"/><path d="M2.725332,27.784061L42.725334,31.461746Q44.043762,31.582966,45.021881,30.690655Q46,29.79834,46,28.474348L46,3.0000005Q46,1.7573568800000001,45.121323,0.87867967Q44.242641,0,43,0L3.0000005,0Q1.7573595,0,0.87867975,0.87867975Q0,1.7573595,0,3.0000005L-1.9999999989472883e-7,24.796661Q0,27.533485,2.725332,27.784061ZM43.673962,29.213116Q43.347919,29.510555,42.90844,29.47015L2.9084437999999997,25.792463Q1.9999997600000001,25.708939,1.9999998799999998,24.796661L2,3.0000005Q2,2,3.0000005,2L43,2Q44,2,44,3.0000005L44,28.474348Q44,28.915678,43.673962,29.213116Z" fill-rule="evenodd" fill="#C27B55" fill-opacity="1"/></g><g><ellipse cx="36.99998950958252" cy="8" rx="3.0857133865356445" ry="3" fill="#C27B55" fill-opacity="1"/><path d="M36.99998952304688,11Q37.15158082304688,11,37.302442323046876,10.9855542Q37.45330382304687,10.9711084,37.601982123046874,10.9423552Q37.75066092304687,10.9136028,37.895724823046876,10.870821Q38.04078862304687,10.8280382,38.180840523046875,10.7716379Q38.320892823046876,10.7152381,38.45458462304688,10.6457634Q38.58827592304687,10.5762887,38.71431922304687,10.494408100000001Q38.840363023046876,10.412528,38.957544823046874,10.319031200000001Q39.074727023046876,10.2255344,39.18191812304688,10.1213202Q39.28910922304688,10.017107,39.385278223046875,9.903180599999999Q39.48144622304687,9.7892537,39.56566572304688,9.6667109Q39.64988562304688,9.5441685,39.72134542304688,9.4141908Q39.79280472304688,9.284212100000001,39.85081622304688,9.148050300000001Q39.908828223046875,9.011888500000001,39.952832723046875,8.870854399999999Q39.99683762304687,8.7298198,40.026411023046876,8.5852709Q40.05598542304688,8.4407225,40.070844223046876,8.2940516Q40.085702923046874,8.1473808,40.085702923046874,8Q40.085702923046874,7.8526194,40.070844223046876,7.7059484000000005Q40.05598542304688,7.5592775,40.026411023046876,7.4147286Q39.99683762304687,7.2701802,39.95283322304687,7.1291459Q39.908828223046875,6.9881115000000005,39.85081622304688,6.8519496Q39.79280472304688,6.7157879000000005,39.72134542304688,6.5858097Q39.64988562304688,6.4558318,39.56566572304688,6.3332891Q39.48144622304687,6.2107468,39.385277723046876,6.0968201Q39.28910922304688,5.9828934700000005,39.18191762304687,5.87867963Q39.07472662304687,5.77446592,38.957544823046874,5.68096864Q38.840363023046876,5.58747137,38.71431922304687,5.50559109Q38.58827592304687,5.42371088,38.45458412304687,5.35423619Q38.320892823046876,5.28476149,38.180840523046875,5.22836138Q38.04078862304687,5.17196131,37.89572432304688,5.12917899Q37.750660623046876,5.086396672,37.60198192304688,5.057644151Q37.45330362304688,5.028891638,37.30244212304687,5.014445819Q37.15158082304688,5,36.99998952304688,5Q36.84839822304688,5,36.69753672304687,5.014445819Q36.546675223046876,5.028891638,36.39799642304688,5.057644151Q36.249318123046876,5.086396672,36.10425422304687,5.12917899Q35.959190323046876,5.17196131,35.819137923046874,5.22836138Q35.679085823046876,5.28476149,35.54539422304688,5.35423622Q35.41170252304688,5.42371094,35.28565882304687,5.50559115Q35.15961532304688,5.58747143,35.042433623046875,5.68096864Q34.92525182304688,5.77446592,34.81806057304688,5.87867963Q34.71086931304688,5.9828934700000005,34.614700733046874,6.0968201Q34.51853215304688,6.2107468,34.43431252304688,6.3332891Q34.35009288304688,6.4558318,34.27863320304687,6.5858099Q34.207173523046876,6.7157879000000005,34.14916202304688,6.8519496Q34.09115053304688,6.9881115000000005,34.047145893046874,7.1291459Q34.003141239046876,7.2701802,33.97356722904688,7.4147289Q33.94399322604688,7.5592775,33.92913467404688,7.7059484000000005Q33.914276123046875,7.8526194,33.914276123046875,8Q33.914276123046875,8.1473808,33.92913467404688,8.2940516Q33.94399322604688,8.4407225,33.97356722904688,8.5852709Q34.003141239046876,8.7298198,34.047145893046874,8.870854099999999Q34.09115053304688,9.011888500000001,34.14916202304688,9.148049799999999Q34.207173523046876,9.284212100000001,34.27863320304687,9.4141903Q34.35009288304688,9.5441685,34.43431252304688,9.6667104Q34.51853215304688,9.789253200000001,34.614700733046874,9.9031796Q34.71086931304688,10.0171061,34.81806057304688,10.1213198Q34.92525182304688,10.225534,35.042433623046875,10.319031200000001Q35.15961532304688,10.412528,35.28565882304687,10.494408100000001Q35.41170252304688,10.5762887,35.54539422304688,10.6457634Q35.679085823046876,10.7152381,35.819137923046874,10.7716379Q35.959190323046876,10.8280382,36.10425422304687,10.870821Q36.249318123046876,10.9136028,36.39799642304688,10.9423552Q36.546675223046876,10.9711084,36.69753672304687,10.9855542Q36.84839822304688,11,36.99998952304688,11ZM38.48483942304688,6.5956744Q39.085702923046874,7.1798470000000005,39.085702923046874,8Q39.085702923046874,8.820153,38.48483942304688,9.404325499999999Q37.872146123046875,10,36.99998952304688,10Q36.12783262304688,10,35.51513912304687,9.404325499999999Q34.91427606304688,8.820153,34.914276123046875,8Q34.914276123046875,7.1798470000000005,35.51513912304687,6.5956744Q36.12783262304688,6.0000001,36.99998952304688,6Q37.872146123046875,6,38.48483942304688,6.5956744Z" fill-rule="evenodd" fill="#C27B55" fill-opacity="1"/></g><g><path d="M1,35C1,36.104569999999995,1.8954305599999999,37,3.0000002,37L43.000015,37C44.104584,37,45.000015,36.104569999999995,45.000015,35L45.000015,28.525496C45.000015,27.874147,44.682835,27.263601,44.149906,26.889112L35.085598,20.5196009C34.427681,20.0572805,33.556858,20.0339408,32.875122000000005,20.460355800000002L26.667759,24.3429508C25.937344,24.7998123,24.996449,24.7375956,24.33255,24.188533800000002L14.458916,16.0227753C13.736382,15.42522025,12.695717,15.40982378,11.955821,15.98574227L1.77152836,23.912972500000002C1.28470439,24.291905399999997,1,24.874299,1,25.491218L1,35Z" fill="#C27B55" fill-opacity="1"/><path d="M15.096228,15.25216922Q13.241194,13.7180068,11.341585,15.1966196L1.15729241,23.1238508Q-1.0000000005838672e-7,24.024662,-1.0000000005838672e-7,25.491218L0,35Q0,36.242643,0.87867999,37.121323000000004Q1.75735801,38,3.0000005,38L43.000015,38Q44.242661,38,45.121338,37.121323000000004Q46.000015,36.242647000000005,46.000015,35L46.000015,28.525496Q46.000015,26.966974999999998,44.724854,26.070919L35.660545,19.7014093Q34.032166,18.5571411,32.34483,19.6125412L26.137466,23.4951363Q25.525814,23.8777142,24.969862,23.4179277L15.096228,15.25216922ZM2.385764,24.702095L12.570057,16.7748649Q13.20326,16.2819935,13.821605,16.7933815L23.69524,24.9591408Q25.363091,26.338497,27.198055,25.190765L33.405418,21.3081698Q33.967861,20.956370800000002,34.510651,21.3377929L43.574966,27.707304999999998Q44.000015,28.005988000000002,44.000015,28.525496L44.000015,35Q44.000015,36,43.000015,36L3.0000005,36Q2,36,2,35L1.99999994,25.491218Q1.99999994,25.002364999999998,2.385764,24.702095Z" fill-rule="evenodd" fill="#C27B55" fill-opacity="1"/></g></g></svg>