<svg xmlns="http://www.w3.org/2000/svg" xmlns:xlink="http://www.w3.org/1999/xlink" fill="none" version="1.1" width="24" height="24" viewBox="0 0 24 24"><defs><clipPath id="master_svg0_2432_117274"><rect x="0" y="0" width="24" height="24" rx="0"/></clipPath></defs><g clip-path="url(#master_svg0_2432_117274)"><g><path d="M17.850286,5.2611852L14,10L14,19C14,20.427156,12.548144,21.39506,11.2307692,20.846153L9.230769200000001,20.012821C8.4854751,19.702282,8,18.974068,8,18.166666L8,10L4.149713,5.2611852C3.0877516,3.9541558,4.0178723000000005,2,5.701941,2L16.298059000000002,2C17.982128,2,18.912249,3.9541558,17.850286,5.2611852ZM5.701941,4L9.999999,9.289918400000001L9.999999,18.166666L11.999999,18.999998L12,9.289918400000001L16.298059000000002,4L5.701941,4Z" fill-rule="evenodd" fill="#15181D" fill-opacity="1"/></g><g><rect x="16.5" y="13.5" width="4.5" height="1.75" rx="0.875" fill="#15181D" fill-opacity="1"/></g><g><rect x="16.5" y="17" width="4.5" height="1.75" rx="0.875" fill="#15181D" fill-opacity="1"/></g></g></svg>