<svg xmlns="http://www.w3.org/2000/svg" xmlns:xlink="http://www.w3.org/1999/xlink" fill="none"
    version="1.1" width="24" height="24" viewBox="0 0 24 24">
    <defs>
        <clipPath id="master_svg0_2393_118452">
            <rect x="0" y="0" width="24" height="24" rx="0" />
        </clipPath>
    </defs>
    <g clip-path="url(#master_svg0_2393_118452)">
        <g>
            <path
                d="M2.5,18.5C2.5,20.156855,3.8431458000000003,21.5,5.5000005000000005,21.5L14.5,21.5C16.156855,21.5,17.5,20.156855,17.5,18.5L17.5,9.5000005C17.5,7.8431458,16.156855,6.5,14.5,6.5L5.5000005000000005,6.5C3.8431458000000003,6.5,2.5,7.8431458,2.5,9.5000005L2.5,18.5Z"
                fill="#15181D" fill-opacity="1" />
            <path
                d="M2.5,18.5C2.5,20.156855,3.8431458000000003,21.5,5.5000005000000005,21.5L14.5,21.5C16.156855,21.5,17.5,20.156855,17.5,18.5L17.5,9.5000005C17.5,7.8431458,16.156855,6.5,14.5,6.5L5.5000005000000005,6.5C3.8431458000000003,6.5,2.5,7.8431458,2.5,9.5000005L2.5,18.5ZM13.5,17.5L6.5,17.5L6.5000005,10.5L13.5,10.500000499999999L13.5,17.5Z"
                fill-rule="evenodd" fill="#15181D" fill-opacity="1" />
        </g>
        <g>
            <path
                d="M19.5,5.5000005000000005L19.5,17L21.499999000000003,17L21.499999000000003,5.5000005000000005Q21.499999000000003,4.25735849,20.621321000000002,3.37867965Q19.742641,2.5,18.5,2.4999998000000003L7,2.5L7,4.5L18.5,4.49999982Q18.914213,4.49999982,19.207107,4.7928932Q19.5,5.0857865,19.5,5.5000005000000005Z"
                fill-rule="evenodd" fill="#15181D" fill-opacity="1" />
        </g>
        <g>
            <path
                d="M6.1193217,13.4238639C5.960226357,13.5829599,5.960226357,13.840904,6.1193217,14L9.000001000000001,16.880679100000002C9.1590962,17.0397744,9.4170411,17.0397744,9.5761375,16.880679100000002L14.1852226,12.2715926C14.3443184,12.1124976,14.3443184,11.85455269,14.1852226,11.69545734L13.6090865,11.11932132C13.4499912,10.96022597,13.192046600000001,10.96022597,13.0329509,11.11932132L9.288069,14.8642039L7.2715933,12.8477283C7.112498,12.6886328,6.85455304,12.6886328,6.6954577,12.8477283L6.1193217,13.4238639Z"
                fill="#FFFFFF" fill-opacity="1" />
        </g>
    </g>
</svg>