<svg xmlns="http://www.w3.org/2000/svg" xmlns:xlink="http://www.w3.org/1999/xlink" fill="none" version="1.1" width="28.90625" height="25.3330078125" viewBox="0 0 28.90625 25.3330078125"><g><path d="M0.3681874,14.018741L6.250658,24.018742C6.7297802,24.833233,7.6041746,25.333334,8.5491381,25.333334L20.357346,25.333334C21.30233,25.333334,22.176735,24.833212,22.655853,24.01869L28.538029,14.01869C29.028906,13.184174,29.028906,12.14916,28.538029,11.314644L22.655851,1.3146434C22.176735,0.5001229,21.30233,0,20.357346,0L8.5491371,0C7.6041746,0,6.7297802,0.50010121,6.250658,1.3145932L0.36818725,11.314593C-0.12272906,12.149135,-0.12272906,13.184199,0.3681874,14.018741ZM8.549139,22.666668L2.666667,12.666667L8.5491381,2.6666667L20.357346,2.6666667L26.239521,12.666667L20.357346,22.666668L8.549139,22.666668ZM19.786785,12.667318Q19.786785,13.684616,19.412321,14.630489Q19.005735,15.657505,18.224686,16.438553Q17.443638,17.219603,16.416622,17.626188Q15.470749,18.000652,14.453451,18.000652Q13.436152,18.000652,12.490279,17.626188Q11.463263,17.219603,10.682215,16.438553Q9.901166,15.657505,9.4945793,14.630489Q9.1201172,13.684616,9.1201172,12.667318Q9.1201172,11.650019,9.4945793,10.704146Q9.901166,9.6771297,10.682215,8.8960819Q11.463263,8.1150331,12.490279,7.708447Q13.436152,7.3339844,14.453451,7.3339844Q15.47075,7.3339844,16.416622,7.708447Q17.443638,8.1150331,18.224686,8.8960819Q19.005733,9.6771297,19.412321,10.704146Q19.786785,11.65002,19.786785,12.667318ZM17.120117,12.667318Q17.120117,11.562748,16.339069,10.7817Q15.558021,10.000651,14.453451,10.000651Q13.348881,10.000651,12.567833,10.7817Q11.786784,11.562748,11.786784,12.667318Q11.786784,13.771888,12.567833,14.552937Q13.348881,15.333984,14.453451,15.333984Q15.558021,15.333984,16.339069,14.552937Q17.120117,13.771888,17.120117,12.667318Z" fill-rule="evenodd" fill="#15181D" fill-opacity="1"/></g></svg>