<svg xmlns="http://www.w3.org/2000/svg" xmlns:xlink="http://www.w3.org/1999/xlink" fill="none" version="1.1" width="270" height="328" viewBox="0 0 270 328"><g><g><rect x="0" y="0" width="270" height="326" rx="15" fill="#FFFFFF" fill-opacity="1"/></g><g><rect x="10.384521484375" y="10.384765625" width="249.23077392578125" height="305.3077087402344" rx="10.384615898132324" fill="#F5ECE5" fill-opacity="1"/></g><g><g><path d="M10.384521484375,238.846325625L18.692213984375,238.846325625L18.692213984375,10.384765625C14.104001984375,10.384765625,10.384521484375,14.104246125,10.384521484375,18.692461025L10.384521484375,238.846325625Z" fill="#F5ECE5" fill-opacity="1"/></g><g><rect x="18.6923828125" y="10.384765625" width="8.307692527770996" height="228.46156311035156" rx="0" fill="#F3E4D8" fill-opacity="1"/></g><g><rect x="27" y="10.384765625" width="8.307692527770996" height="228.46156311035156" rx="0" fill="#F5ECE5" fill-opacity="1"/></g><g><rect x="35.30760192871094" y="10.384765625" width="8.307692527770996" height="228.46156311035156" rx="0" fill="#F3E4D8" fill-opacity="1"/></g><g><rect x="43.615478515625" y="10.384765625" width="8.307692527770996" height="228.46156311035156" rx="0" fill="#F5ECE5" fill-opacity="1"/></g><g><rect x="51.923095703125" y="10.384765625" width="8.307692527770996" height="228.46156311035156" rx="0" fill="#F3E4D8" fill-opacity="1"/></g><g><rect x="60.230682373046875" y="10.384765625" width="8.307692527770996" height="228.46156311035156" rx="0" fill="#F5ECE5" fill-opacity="1"/></g><g><rect x="68.53857421875" y="10.384765625" width="8.307692527770996" height="228.46156311035156" rx="0" fill="#F3E4D8" fill-opacity="1"/></g><g><rect x="76.845947265625" y="10.384765625" width="8.307692527770996" height="228.46156311035156" rx="0" fill="#F5ECE5" fill-opacity="1"/></g><g><rect x="85.15380859375" y="10.384765625" width="8.307692527770996" height="228.46156311035156" rx="0" fill="#F3E4D8" fill-opacity="1"/></g><g><rect x="93.46142578125" y="10.384765625" width="8.307692527770996" height="228.46156311035156" rx="0" fill="#F5ECE5" fill-opacity="1"/></g><g><rect x="101.769287109375" y="10.384765625" width="8.307692527770996" height="228.46156311035156" rx="0" fill="#F3E4D8" fill-opacity="1"/></g><g><rect x="110.076904296875" y="10.384765625" width="8.307692527770996" height="228.46156311035156" rx="0" fill="#F5ECE5" fill-opacity="1"/></g><g><rect x="118.384521484375" y="10.384765625" width="8.307692527770996" height="228.46156311035156" rx="0" fill="#F3E4D8" fill-opacity="1"/></g><g><rect x="126.6923828125" y="10.384765625" width="8.307692527770996" height="228.46156311035156" rx="0" fill="#F5ECE5" fill-opacity="1"/></g><g><rect x="135" y="10.384765625" width="8.307692527770996" height="228.46156311035156" rx="0" fill="#F3E4D8" fill-opacity="1"/></g><g><rect x="143.3076171875" y="10.384765625" width="8.307692527770996" height="228.46156311035156" rx="0" fill="#F5ECE5" fill-opacity="1"/></g><g><rect x="151.615478515625" y="10.384765625" width="8.307692527770996" height="228.46156311035156" rx="0" fill="#F3E4D8" fill-opacity="1"/></g><g><rect x="159.923095703125" y="10.384765625" width="8.307692527770996" height="228.46156311035156" rx="0" fill="#F5ECE5" fill-opacity="1"/></g><g><rect x="168.23069763183594" y="10.384765625" width="8.307692527770996" height="228.46156311035156" rx="0" fill="#F3E4D8" fill-opacity="1"/></g><g><rect x="176.53857421875" y="10.384765625" width="8.307692527770996" height="228.46156311035156" rx="0" fill="#F5ECE5" fill-opacity="1"/></g><g><rect x="184.84619140625" y="10.384765625" width="8.307692527770996" height="228.46156311035156" rx="0" fill="#F3E4D8" fill-opacity="1"/></g><g><rect x="193.15377807617188" y="10.384765625" width="8.307692527770996" height="228.46156311035156" rx="0" fill="#F5ECE5" fill-opacity="1"/></g><g><rect x="201.46142578125" y="10.384765625" width="8.307692527770996" height="228.46156311035156" rx="0" fill="#F3E4D8" fill-opacity="1"/></g><g><rect x="209.76904296875" y="10.384765625" width="8.307692527770996" height="228.46156311035156" rx="0" fill="#F5ECE5" fill-opacity="1"/></g><g><rect x="218.076904296875" y="10.384765625" width="8.307692527770996" height="228.46156311035156" rx="0" fill="#F3E4D8" fill-opacity="1"/></g><g><rect x="226.384521484375" y="10.384765625" width="8.307692527770996" height="228.46156311035156" rx="0" fill="#F5ECE5" fill-opacity="1"/></g><g><rect x="234.6923828125" y="10.384765625" width="8.307692527770996" height="228.46156311035156" rx="0" fill="#F3E4D8" fill-opacity="1"/></g><g><rect x="243" y="10.384765625" width="8.307692527770996" height="228.46156311035156" rx="0" fill="#F5ECE5" fill-opacity="1"/></g><g><path d="M251.3076171875,10.384765625L251.3076171875,238.846325625L259.6153096875,238.846325625L259.6153096875,18.692458125C259.6153096875,14.104246125,255.8958291875,10.384765625,251.3076171875,10.384765625Z" fill="#F3E4D8" fill-opacity="1"/></g></g><g><path d="M21.9140625,249.2314228625L27.4935184,249.2314228625L28.3210611,242.7666399825L21.9140625,242.3056640625L21.9140625,249.2314228625Z" fill="#F3BC9E" fill-opacity="1"/></g><g><path d="M215.69873046875,249.2314228625L221.27818636875,249.2314228625L222.10572906875,242.7666399825L215.69873046875,242.3056640625L215.69873046875,249.2314228625Z" fill="#F3BC9E" fill-opacity="1"/></g><g><path d="M10.384521484375,137.0542764625L10.384521484375,229.1847610625L21.815310484375,243.86724906249998L41.110548484375,243.86724906249998L222.624771484375,243.86724906249998L229.370821484375,209.4911730625L230.408641484375,174.3205380625Q230.927581484375,139.6422109625,229.370821484375,136.0191025625Q227.814021484375,132.3959939625,222.624771484375,132.3959939625L139.340901484375,129.8525390625Q122.092211484375,129.8525390625,10.384521484375,137.0542764625Z" fill="#FEE8D2" fill-opacity="1"/></g><g><path d="M81.99609375,212.621540125L176.44042174999998,212.621540125L180.07567575000002,195.982939225L87.61608985,194.501953125L81.99609375,212.621540125Z" fill="#F3BC9E" fill-opacity="1"/></g><g><path d="M14.53618815125,181.04883701C12.46059713125,182.084011,19.725944031250002,189.8478165,26.99038453125,190.88299Q34.25482153125,191.918163,82.51531253125,190.88299L73.69361853125,181.04883701Q16.61177923125,180.01366299,14.53618815125,181.04883701Z" fill="#F3BC9E" fill-opacity="1"/></g><g><path d="M10.384521484375,137.0538348875L10.384521484375,144.3460801875Q63.741039484375,141.5074391875,104.836952484375,139.6417693875Q144.554211484375,140.4181501875,169.772981484375,139.6417693875Q228.805251484375,138.0890092875,229.843091484375,138.0890092875C229.715911484375,136.5483789875,229.502321484375,135.7719983875,228.763951484375,134.7681626875C228.025601484375,133.7643270875,225.979811484375,132.4582285875,223.158161484375,132.3450066875Q220.336491484375,132.2317843875,143.748201484375,129.8076171875L10.384521484375,137.0538348875Z" fill="#F3BC9E" fill-opacity="1"/></g><g><rect x="150.847412109375" y="42.5771484375" width="39.46154022216797" height="48.807701110839844" rx="0" fill="#F5ECE5" fill-opacity="1"/><rect x="151.6262582540512" y="43.35599458217621" width="37.90384793281555" height="47.25000882148743" rx="0" fill-opacity="0" stroke-opacity="1" stroke="#FFFFFF" fill="none" stroke-width="1.557692289352417"/></g><g><rect x="155.26083609461784" y="46.991060703992844" width="30.63461595773697" height="39.98077303171158" rx="0" fill-opacity="0" stroke-opacity="1" stroke="#FFFFFF" fill="none" stroke-width="0.5192307829856873"/></g><g><path d="M164.34544109375,70.24917525000001C168.03863049375,66.60036185,170.73830989375,64.80481955,174.93272159375,61.98775435C179.12712659375,59.17068905,179.35788359375,57.75575256,179.58390659375,58.49504827C179.80993059375,59.23434389,178.64744959375,61.22124095,178.45121559375,61.69280815C178.25498759375,62.16437535,172.39200759375,68.80709325,168.03863139375,71.13044925C163.68525719375,73.45380425,162.76680089375,76.29627425,162.22517448375,75.73659325C161.68354830575,75.17691225,160.65225119375,73.89798825,164.34544109375,70.24917525000001Z" fill-rule="evenodd" fill="#E6AA83" fill-opacity="1"/></g><g><path d="M174.14567229375,73.7999244C174.87140349375,72.6240616,176.70443009375,71.6927738,177.57961799375,70.4298453C178.45480539375,69.1669173,180.05079169375,66.70646003,180.69882969374999,67.138486188C181.34686909375,67.57051235,180.44097039375,69.6157639,179.66271019375,71.4799843C178.88444709375,73.3442059,176.96629289375,75.1233902,176.22895719375,75.6121607C175.49162049375,76.1009331,171.84919101375,78.7001745,171.20115183375,78.2681485C170.55311262375,77.8361215,173.41994119375,74.9757862,174.14567229375,73.7999244Z" fill-rule="evenodd" fill="#E6AA83" fill-opacity="1"/></g><g><path d="M163.7868998465,63.4405811875C163.3948639325,61.1091551875,167.2340977125,56.5780129875,169.2288165125,54.7201399875C171.2235360125,52.8622668875,174.6735183125,50.8857421875,175.7711443125,50.8857421875C177.5708823125,50.8857421875,175.2521973125,52.3714319875,174.1457903125,53.9585339875C173.0393820125,55.5456361875,171.0375042125,56.2352394875,169.8611216125,57.8416099875C168.6847396125,59.4479808875,164.1789358225,65.7720101875,163.7868998465,63.4405811875Z" fill-rule="evenodd" fill="#E6AA83" fill-opacity="1"/></g><g><path d="M72.00889345535157,123.01375618750001C71.70214733135157,129.3060951875,71.16689693535156,140.2857821875,73.99999478535156,141.5000001875C77.07886598535157,142.8195531875,124.10055898535157,142.2044901875,136.87873098535158,142.0373501875C138.62610598535156,142.0144921875,139.73313898535156,142.0000111875,139.99989298535155,142.0000001875C142.21733098535157,141.9999011875,143.99989298535155,140.5000001875,144.49989298535155,137.5000001875C144.99989298535155,134.5000001875,140.91363498535156,105.4856571875,140.64057898535157,103.6186581875C140.36753098535155,101.7516571875,139.64585898535157,97.2882491875,134.14361198535155,93.3101005875C128.64136098535155,89.3319511875,121.38493698535157,86.9902954875,118.42673898535156,85.8853027775C116.02408598535156,84.9878250075,111.70778698535156,85.1296946315,109.11845798535157,85.2148016695C108.51975298535156,85.2344801125,108.01337798535155,85.2511238825,107.64433298535155,85.2511832565C105.67921798535156,85.2514994275,92.88783298535157,86.4998616875,88.88940198535155,87.7299921875C84.89096498535156,88.9601235875,81.08015918535156,90.2232818875,78.72751518535156,93.3099851875C76.37487078535156,96.3966861875,74.77497218535156,100.8388321875,73.99485848535156,105.7066211875C73.81011938535156,106.85936318750001,73.60888768535156,108.0142111875,73.40933558535156,109.1594181875C72.76622188535157,112.8501791875,72.14055374535157,116.4408211875,72.14061287535156,119.5382421875C72.14062762535156,120.31147018749999,72.08108949535156,121.53278718749999,72.00889345535157,123.01375618750001Z" fill="#D59877" fill-opacity="1"/></g><g><path d="M96.50000518136719,64.4999999875Q96.00010329136718,68.0000001875,97.2534375813672,72.5000001875L105.00008485136719,69.5000001875L116.94313065136718,65.5143671875Q118.7444646513672,64.9931077875,119.69900665136718,64.1544284875C120.65355065136718,63.3157500875,120.87462965136719,61.6799702875,120.87462965136719,60.3332151875C120.87462965136719,58.9864592875,119.83895665136718,57.9997880875,117.88170065136718,56.6364996875C115.92444265136719,55.2732113875,111.63014565136719,55.3504693285,109.4761496513672,55.5787264375C107.32215265136719,55.8069835275,103.77829935136718,56.5884554875,101.66715005136719,57.8097965875C99.55599995136718,59.0311379875,96.99990707136719,60.9999999875,96.50000518136719,64.4999999875Z" fill="#F5F5F5" fill-opacity="1"/></g><g><path d="M97.21632501,71.3649054C97.027349487,72.2439613,96.766938,74.133886,97.40535581,76.077437C98.0437735,78.021002,98.9451282,78.074638,99.9092352,79.721844C100.8733423,81.369051,101.7843456,83.379879,102.3916812,84.11985C102.9990163,84.859819,105.8820162,87.808796,107.18316899999999,88.959658C108.484324,90.110535,110.145285,90.993223,111.485666,90.993223C112.826052,90.993223,114.629417,89.474186,115.40365,88.18241499999999C116.17788300000001,86.890648,118.012894,85.40252699999999,118.506435,82.92262600000001C118.999977,80.442724,118.999977,77.306477,118.999977,75.211113C118.999977,73.115745,118.22986399999999,72.1448746,117.911888,70.6849327C117.755075,69.9649463,117.836538,69.1386709,117.918165,68.3107233C118.002056,67.4598145,118.08612099999999,66.6071398,117.911886,65.8662632C117.568119,64.4045025,116.540937,63.69142646,114.959959,63.28876337C113.378979,62.88610037,106.7368717,62.963637814,105.1582775,63.11937466C103.5796828,63.27511153,101.4115281,63.60242993,100.3331916,64.6974678C99.7343094,65.3056247,99.4627206,65.8665116,99.1943605,66.8123639Q98.8549788,68.0085335,98.7378836,69.4613471Q97.40530056,70.4858518,97.21632501,71.3649054Z" fill="#E1A0A6" fill-opacity="1"/></g><g><path d="M93.68819236875,129.5899147625C92.49945419875,131.8876285625,92.91627738475,136.15258976249999,93.68825399875,138.0459570625C94.46023071875,139.9393240625,95.33841181875,140.9605450625,98.28747991875,141.2475420625Q101.23654751875,141.5345380625,105.34736921875,141.2475420625L105.34736921875,128.1988267925Q102.83117481875,127.6011115625,100.46429011875,127.6011117785C100.21937651875,127.6011118015,99.96532341875,127.5978042875,99.70532801875,127.5944194039C97.45268151875,127.5650922115,94.75392591875,127.5299571045,93.68819236875,129.5899147625Z" fill="#E1A0A6" fill-opacity="1"/></g><g><path d="M150.48728404575,121.2261121375C150.11119288375,122.0587067375,151.72147134375,127.7154846375,152.31524004375,128.7509031375C152.90900874375,129.7863229375,156.04543684375,132.3165579375,156.36615324375,133.0365859375C156.68686964375,133.7566129375,158.25444984375,144.1797679375,159.01504234375,145.9686789375C159.77563384375,147.7575909375,160.56056384375,150.4054659375,161.66367584375,151.1873549375C162.76678884375,151.9692419375,168.59723084375,154.5755389375,170.07734284375,154.9274409375Q171.55745484375,155.2793429375,174.59576584375,154.9274409375L171.55745484375,145.9686789375Q168.06380284375,145.3683189375,167.11686484375,144.3318839375C166.16993084375,143.2954519375,162.28674884375,132.6704869375,162.28685484375,131.5559659375C162.28695984375,130.4414459375,163.12462384375,128.5734319375,163.29474384375,127.4426841375C163.46486384375,126.3119378375,161.92785584375,121.1399116375,161.52941084375,120.9654824375C161.13096484375,120.7910535375,160.49931484375,120.6754434375,160.25201794375,121.0912337375C160.13803194375,121.2828831375,160.15564724375,122.1969533375,160.17356684375,123.12675953749999C160.19452384375,124.21420193750001,160.21589564375,125.3231682375,160.02764224375,125.3231682375C159.67842674375,125.3231682375,159.30698204375,125.0577211375,158.39161014375,123.9997377375C157.47623734375,122.9417543375,157.24448874375,122.2392208375,156.36615324375,121.0912337375C155.48781824375,119.9432468375,154.39702724375,118.944298056449,153.68785504375,118.9443359375C152.97868274375,118.944373818551,150.86337515375,120.3935173375,150.48728404575,121.2261121375Z" fill="#E1A0A6" fill-opacity="1"/></g><g><path d="M173.5365061875,92.215258125Q169.5833711375,96.497898125,169.9016568395,97.300070125C170.2199425375,98.102241125,172.1178729875,97.681379125,172.2896422875,98.302023125C172.3585695875,98.551073125,172.2667698875,99.618250125,172.1605672875,100.852856125C172.0021094875,102.694933125,171.8115889875,104.909738125,172.0750264875,105.335977125C172.5150262875,106.047891125,173.6078729875,106.31156312499999,174.9766850875,106.457598125Q176.3454970875,106.603632125,179.8007421875,106.457598125L181.1586526875,118.35528612499999L191.89237768750002,112.924656125L191.89237768750002,110.272728125L190.7930716875,100.508755125L195.6426046875,95.271824125L195.6426046875,86.735952825L183.6802686875,78.783203125L174.6365751875,83.414701425Q173.1239482875,85.250010025,172.6197392875,86.973258025C172.1155299875,88.696506525,172.2399503875,89.44974512499999,172.6197392875,90.307693125Q172.9995281875,91.16564112500001,173.5365061875,92.215258125Z" fill="#E1A0A6" fill-opacity="1"/></g><g><path d="M173.67626953125,82.7439918125C173.67626953125,84.6586548125,175.83863263125,84.9263838125,177.14837213125,84.4903118125C177.71520523125,84.30158581250001,178.17614313125,83.8171288125,178.64123913125,83.3283018125C179.25080533125,82.6876308125,179.86751363125,82.0394548125,180.73912713125,82.0397218125C182.27577683125,82.0401908125,182.23216913125,83.9335578125,182.48240373125,85.4912498125C182.73263933125,87.0489428125,183.51199153125,89.3414018125,184.93201753125,90.8666398125C185.06280853125,91.0071218125,185.18986253125001,91.14511681249999,185.31376453125,91.2796898125C186.53509853125001,92.60620081249999,187.45021853125,93.6001278125,188.61987353125,93.3644258125C189.90819153125,93.1048088125,189.56605053125,90.6759868125,190.47926853125,89.8281788125C191.39248653125,88.9803738125,192.36553753125,89.0138398125,193.04271653125,89.8281788125C193.71989853125,90.6425208125,193.71989853125,91.9375538125,193.32565653125,93.0094818125C192.93141753125,94.0814098125,191.17926753125,96.6177308125,190.99317553125,97.2485158125C190.80708353125,97.8792988125,190.38089953125,99.3984548125,191.32859653125,99.9734628125C192.27629253125,100.5484698125,193.48056453125,100.3598438125,194.27867853125,100.1205098125C195.07679353125,99.8811778125,197.14966053125,97.9888248125,197.87374453125,96.5781808125C198.59782753125,95.1675338125,198.69163553125,90.5319808125,199.43143853125,89.8281788125C199.79336353125,89.4838638125,200.28198853125,89.71576081250001,200.90737553125,90.0125638125C201.56032153125,90.3224448125,202.36234853125,90.7030788125,203.32490753125,90.5725438125C205.20940053125,90.31698581250001,206.50576753125,90.1440768125,208.25836153125,87.75126081249999C210.01095553125,85.3584378125,210.03636953125,83.5233818125,209.77675653125,81.0570354125C209.51713953125,78.5906877125,207.14688153125002,78.0085816125,206.23290653125,77.8858724125C205.31892553125,77.7631636125,203.54395653125,77.8853869125,202.47684653125,78.5739765125C202.14554553125,78.7877593125,201.84002853125,79.0374160125,201.55374353125,79.2713556125C200.91791153125,79.7909307125,200.37695553125,80.23297691249999,199.85914453125,80.0322857125C199.10818453125,79.7412310125,199.18145553125,75.7658710125,198.84654253125,74.7000282125C198.51162753124999,73.6341851125,197.72847153125,72.0877801825,195.39193153125,71.6983570325C193.05539353125,71.3089339025,191.66173553125,71.3739743125,189.45500453125,72.6720514125C187.24827353125,73.9701280125,187.70691153125,75.9436111125,186.96989753125,76.3281803125C186.67398653125,76.4825845125,186.22898253125,76.3136864125,185.60869653125,76.0782618125C184.68406153125,75.7273230125,183.36993983125,75.2285573125,181.57958123125,75.4324934125C178.58817293125,75.7732382125,176.76300553125,77.2954368125,175.88629623125,78.2618952125C175.00958733125,79.2283544125,173.67626953125,80.8293276125,173.67626953125,82.7439918125Z" fill="#15181D" fill-opacity="1"/></g><g><path d="M170.5665551975,127.913788125C170.1024687815,130.802009125,170.0387548775,140.968794125,170.2694308875,143.88946512500002C170.5001068675,146.810142125,171.9846656375,158.322460125,172.8339932375,159.756431125C173.6833207375,161.190399125,180.8763204375,163.782295125,190.8100034375,162.367798125Q200.7436884375,160.953304125,212.5687254375,154.098446125Q212.7293204375,115.823522125,207.76139043749998,113.061262125C202.79346043750002,110.299002175,196.2931864375,110.770747487,193.8838824375,111.039802735C191.4745824375,111.308857945,190.0233724375,115.887508425,188.3494534375,116.462316525C187.4102634375,116.784824325,185.3886934375,115.982176825,183.6416154375,115.28851362500001C182.2748664375,114.745856725,181.0761054375,114.269898425,180.6949644375,114.451510625C179.8266220375,114.865272525,174.5303826375,117.899327325,172.7742998375,120.037098925C171.0182180975,122.174869125,171.0306415575,125.025569125,170.5665551975,127.913788125Z" fill="#F5F5F5" fill-opacity="1"/></g><g><path d="M127.805285909375,153.3709807625C124.827821999375,156.8391065625,125.016094489375,161.1827690625,125.410973179375,164.6064470625Q125.805851819375,168.03012706250001,127.805316409375,172.2042540625Q139.301912109375,176.8148150625,140.687711109375,176.8148150625Q142.073511109375,176.8148150625,163.55566410937502,178.7953990625L184.83956110937498,178.7953990625Q185.433586109375,178.7953990625,200.084869109375,173.8454650625L198.599937109375,162.1637880625Q184.050056109375,160.8966420625,173.851036109375,158.6985300625C163.652019109375,156.5004196625,163.555706109375,156.1622075625,157.803860109375,153.3713431625C152.052009109375,150.5804772625,148.843960109375,147.8478038925,142.590711109375,147.4519087635C136.337465109375,147.0560135225,130.782750109375,149.9028541625,127.805285909375,153.3709807625Z" fill="#6A74B5" fill-opacity="1"/></g><g><path d="M113.941162109375,169.51171875L118.080811009375,206.29597875000002L154.864563109375,206.29597875000002L159.122608109375,169.51171875L113.941162109375,169.51171875Z" fill="#066F61" fill-opacity="1"/></g><g><path d="M118.5478515625,179.029296875L121.0180008625,202.743543875L126.0571765625,202.743543875L123.7845272625,179.029296875L118.5478515625,179.029296875Z" fill="#F5F5F5" fill-opacity="1"/></g><g><path d="M127.49072265625,179.029296875L129.96087195625,202.743543875L135.00004765625,202.743543875L132.72739835625,179.029296875L127.49072265625,179.029296875Z" fill="#F5F5F5" fill-opacity="1"/></g><g><path d="M20.624421261255,253.9794769375Q20.620276093525,254.1299238375,20.727706108125,254.2834448375C22.072505078125,256.2052078375,26.395639378125,257.4535927375,29.853797878125,258.5103101375C31.426045578125,258.99074463750003,35.028757578124996,258.5626125375,39.571752578125,258.0227413375C45.021072578125,257.3751654375,51.823268578124996,256.5668196375,58.096858578125,256.9728989375C69.60062457812501,257.7175183375,70.873538578125,262.0644719375,82.593501578125,262.0644719375C94.313461578125,262.0644719375,96.234970578125,257.6449232375,104.880615578125,256.9725599375C108.887702578125,256.6609330375,114.932327578125,257.3765592375,120.850327578125,258.0771932375C124.178307578125,258.4711952375,127.466247578125,258.8604555375,130.32926757812498,259.0596265375C137.677737578125,259.5708341375,143.496037578125,260.3684139375,148.606837578125,261.0690069375C156.929777578125,262.2099269375,163.376407578125,263.0936369375,171.499607578125,262.0644719375C175.410687578125,261.5689579375,178.309947578125,261.07344493749997,180.693247578125,260.6661159375C186.299607578125,259.7079343375,189.050857578125,259.2377195375,195.401457578125,260.4033379375C204.451747578125,262.0644719375,212.573847578125,260.2197829375,212.573847578125,259.0596265375C212.573847578125,257.8994693375,202.943497578125,254.8327608375,193.660977578125,253.0925269375C184.378447578125,251.3522925375,162.681307578125,249.9599609375,153.166807578125,249.9599609375C143.652307578125,249.9599609375,115.805251578125,250.9213492875,108.727691578125,250.9213492875Q101.650131578125,250.9213492875,79.106689578125,250.9216286575L57.395343578125,250.9216286575L35.521727578125,250.9216286575Q20.672164917125,252.2466433375,20.624421261255,253.9794769375Z" fill="#F2E0D3" fill-opacity="1"/></g><g><path d="M171.392822265625,245.5957784375L176.585130665625,265.3265509375L184.373592265625,268.4419369375L188.527439265625,264.2880899375L185.412054265625,244.0380859375L171.392822265625,245.5957784375Z" fill="#E1A0A6" fill-opacity="1"/></g><g><path d="M158.931396484375,273.6346028125L189.566011484375,273.1153718125Q192.162166484375,273.1153718125,192.681392484375,271.5576788125C193.200626484375,269.9999857125,191.123703484375,262.7307542125,190.604473484375,262.2115234125C190.085241484375,261.6922925725,188.008317484375,262.2115234125,187.489088484375,262.7307542125C186.969856484375,263.2499850125,184.422889484375,264.2904148125,182.154548484375,264.2904148125C179.886211484375,264.2904148125,176.58524348437498,261.6922326125,176.066011484375,261.1730018225C175.546781484375,260.6537710125,174.508318484375,261.1730617425,173.989088484375,261.6922925725C173.469857484375,262.2115234125,171.392933484375,265.3269086125,168.796781584375,266.8846006125C166.200626884375,268.4422936125,159.969858084375,271.0384478125,159.450627264375,271.5576788125Q158.931396484375,272.0769098125,158.931396484375,273.6346028125Z" fill="#3E3E45" fill-opacity="1"/></g><g><path d="M152.700439453125,261.1733034375L164.123517453125,261.1733034375L164.642747453125,246.1156101375L153.219670233125,245.0771484375L152.700439453125,261.1733034375Z" fill="#E1A0A6" fill-opacity="1"/></g><g><path d="M137.12383981875,264.2872376625C136.08537822975,264.8064684625,135.56618922875,266.8833913625,136.60459553875,266.8833913625L165.16214721875,266.8833913625C166.04185721875,265.1239728625,165.80372821875,264.4823932625,165.39471021875,263.3803982625C165.32090021875,263.1815328625,165.24152421875,262.9676732625,165.16214721875,262.7295451625C164.91591221875,261.9908411625,164.94244921875,261.1895527625,164.96444121875,260.5254716625C164.98882321874999,259.7892162625,165.00762021875,259.2216126325,164.64291721875,259.0949293425C163.44803021875,258.6798716825,162.61600921875,259.0290323525,161.66241421875,259.4292114425C160.81787521875,259.7836257625,159.87797721875,260.1780567625,158.50620621875,260.1170749625C157.18256721875,260.0582330625,156.35840421875,259.6335170625,155.58148721875,259.2331490525C154.64409621875,258.7500846725,153.77548821875,258.3024652425,152.18134521875,258.5756984505C151.03686021875,258.7718610125,148.02753221875,261.6908419625,145.95057491875,262.7295451625C143.87361861875,263.7682475625,138.16230131875,263.7680067625,137.12383981875,264.2872376625Z" fill="#3E3E45" fill-opacity="1"/></g><g><g><path d="M181.25830078125,229.50033587500002L191.12368678125,229.50033587500002Q216.04676478125,229.50033587500002,220.71984478125,228.461879875C225.39292178125,227.423415875,235.77753878125,227.423415875,238.89292178125,223.788802875C242.00830878125,220.154185875,242.00830878125,203.019569875,243.04677178125002,196.788797875C243.25805278125,195.521115875,243.61978178125,193.587174875,244.04887778124998,191.293065875C245.72883578124998,182.311412875,248.44138378125,167.809140675,247.20061478125,166.155136945C245.64292178124998,164.078665175,234.73907478125,166.154288765,231.62369178125,168.230807075C228.50830478125,170.307323475,227.46984478125,174.461577375,226.43138078125,179.134653875Q225.39292178125,183.807731875,220.71984478125,212.884955875L191.12368678125,216.519569875L181.25830078125,229.50033587500002Z" fill="#F3BC9E" fill-opacity="1"/></g><g><path d="M192.681396484375,266.3654628125L198.912165684375,266.3654628125L206.181396484375,227.9423828125L197.873704384375,227.9423828125L192.681396484375,266.3654628125Z" fill="#F3BC9E" fill-opacity="1"/></g><g><path d="M222.27734375,226.9040715375L234.73888175,265.3271524375L239.93119074999998,265.3271524375L229.54657455,224.8271484375L222.27734375,226.9040715375Z" fill="#F3BC9E" fill-opacity="1"/></g></g><g><path d="M192.162109375,131.8839406875Q192.162109375,132.0224016875,192.217494022,132.1331706875Q192.577494115,132.8531716875,195.277493975,132.4031716875Q194.758263375,135.5185556875,194.758263375,137.0762476875C194.758263375,138.6339416875,194.758263375,139.6724036875,195.796724775,140.1916336875Q196.835186475,140.7108646875,202.546725375,140.1916336875Q203.065956375,141.7493266875,203.585187375,142.2685566875C204.104417375,142.7877886875,205.142878375,143.8262496875,207.219802375,143.8262496875C209.296726375,143.8262496875,210.854417375,143.8262496875,212.412111375,143.3070186875Q213.969802375,142.7877886875,215.008264375,140.7108646875L215.527496375,134.4800936875L210.854417375,123.5762470875L199.431340175,122.0185546875L194.758263375,122.0185546875Q195.147686475,124.0954780875,195.277493975,125.6531703875Q195.407301675,127.2108630875,195.277493975,128.2493242875Q192.162109375,130.8454789875,192.162109375,131.8839406875Z" fill="#E1A0A6" fill-opacity="1"/></g><g><path d="M193.719706073125,116.8263979125C193.200509343125,119.4225521125,193.719910953125,121.4996603125,195.796663503125,123.5763993125C197.873415903125,125.6531363125,200.469310303125,127.7302133125,201.508031803125,127.7297233125C201.918726903125,127.72952831250001,202.248169903125,127.2425133125,202.624783503125,126.6857663125C203.200693103125,125.8344003125,203.886906703125,124.8199713125,205.142644703125,125.1339053125C207.219568703125,125.6531363125,207.219568703125,126.6915993125,207.219568703125,128.2489533125C207.219568703125,129.8063053125,206.181106703125,130.84476631249998,205.661875703125,131.8835673125C205.142644703125,132.9223673125,205.661875703125,134.9992903125,206.700337703125,136.5569843125C207.73879870312498,138.1146753125,209.296565703125,139.6726133125,211.373489703125,139.6726133125C213.450412703125,139.6726133125,214.488874703125,139.1533813125,215.527335703125,138.1149193125C216.56579770312499,137.0764603125,218.123567703125,135.5193443125,218.642720703125,132.9226133125C219.161876703125,130.3258763125,219.681182703125,128.2495343125,219.681182703125,123.5764573125C219.681182703125,118.9033794125,218.123491703125,115.2687635125,214.488874703125,112.6725371125C210.854259703125,110.0763105125,205.661948703125,110.0759625425,201.508105803125,111.1146750425C197.354258803125,112.1533874125,194.238902863125,114.2302437125,193.719706073125,116.8263979125Z" fill="#15181D" fill-opacity="1"/></g><g><path d="M148.027136565625,221.192161375Q143.873275065625,244.557548375,146.469525275625,246.115242375C149.065775365625,247.672931375,192.681152265625,249.74985537499998,193.719604265625,247.15370537500002C194.60431626562502,244.941913375,193.11031726562499,238.110118375,192.327476265625,234.53033837499999C192.19143726562498,233.908245375,192.076874265625,233.384361375,192.000000265625,233.000000375C191.48077026562498,230.403846375,191.000000265625,227.500000375,191.000000265625,225.000000375C191.000000265625,222.500000375,194.000000265625,221.500000375,197.500000265625,221.500000375C201.000000265625,221.500000375,210.326774265625,222.230468375,215.000000265625,222.230468375C219.67323326562502,222.230468375,223.000000265625,221.000000375,225.000000265625,218.500000375C227.000000265625,216.000000375,226.950378265625,211.326774375,227.46960426562498,203.019083375Q227.98883826562502,194.711389575,226.431144265625,185.365234375Q207.738838265625,186.403696075,196.834991265625,186.922926775Q185.931144265625,187.442157775,181.777298265625,187.961388575L155.815758265625,192.115234875Q153.219604965625,196.269082375,152.700214365625,198.865235375Q152.180824765625,201.461389375,148.027136565625,221.192161375Z" fill="#D5C2C0" fill-opacity="1"/></g><g><path d="M142.83522677125,187.9622635625C141.39556485125,189.8818132625,142.61676875125,192.2441244625,143.21995543125,193.4109363625C143.26940763125,193.5065970625,143.31470583125,193.5942225625,143.35404313125,193.6729092625C143.87319193125,194.7113718625,145.95019703125,196.7882935625,148.02701283125,197.3075245625Q150.10382793125,197.8267555625,153.21943153125,197.8255625625L156.33481653125,191.5947923625L156.33478353125,188.4812576625C155.29682853125001,187.4427960525,155.29682853125001,187.4427960525,153.21939853125,187.4427960525C152.42579153125,187.4427960525,151.84078403125,187.4806829125,151.34121133125,187.5130367325C150.53305053125,187.5653756825,149.94847063125,187.6032348325,149.06605913125,187.4427960525C148.49503943125,187.3389742925,147.96553613125,187.2144025225,147.47132393125,187.0981334125C145.49389413125,186.6329202575,144.08145403125,186.3006273825,142.83522677125,187.9622635625Z" fill="#E1A0A6" fill-opacity="1"/></g><g><path d="M154.25828095937499,188.99995375C151.142878239375,191.59610375,151.662053269375,194.71149075,152.181354879375,196.26918075C152.700656529375,197.82687375,153.739152159375,198.34610375,155.816075759375,198.34610375C157.892999159375,198.34610375,169.315971359375,194.71149075,172.950588359375,193.67302675C176.585201359375,192.63456775,182.815971359375,190.55764375,185.412124359375,187.96149075C188.008281359375,185.36533375,190.085250359375,180.69224975,192.162151359375,179.65379375C194.239051359375,178.61533375,195.796741359375,180.69225675,196.315998359375,182.24994675C196.835250359375,183.80763675,196.500000359375,186.49999975,198.000000359375,187.49999975C198.905052359375,188.10337075,201.994434359375,187.79660375,205.401035359375,187.45833575C207.640400359375,187.23597375,210.016845359375,186.99999975,212.000000359375,186.99999975C212.853622359375,186.99999975,213.821270359375,187.01288975,214.844299359375,187.02651975C219.813552359375,187.09271575,226.089439359375,187.17631875,226.950615359375,185.88456374999998C227.46984135937498,185.10571275,227.942817359375,179.66345975000002,227.469749359375,173.94185975C226.996681359375,168.22026475,225.577568359375,162.21931875,224.873596359375,159.40339875C222.79666935937502,151.09570375,219.681289359375,145.38416525,218.642822359375,143.82647255C216.96340935937502,141.30734813,215.78703335937502,140.97035474,215.008209359375,140.71096401C213.450573359375,140.19218254,206.700492359375,140.71069311,204.104362359375,141.23031855C201.508232359375,141.74994405,197.873539359375,143.82634905,194.758209359375,146.42250255C193.200538359375,147.72057965,188.852035359375,154.08167674999999,183.854438359375,161.99994875C178.856834359375,169.91821675,177.623666359375,175.49995075,173.989053359375,179.65379675C170.354437359375,183.80764375,157.373683959375,186.40379675,154.25828095937499,188.99995375Z" fill="#EA143C" fill-opacity="1"/></g><g><path d="M18.73876953125,177.577376875C18.73876953125,180.692761875,20.29646183125,185.365838875,23.41184663125,186.404300875C26.52723123125,187.442761875,31.200307531249997,187.961993875,37.95030953125,187.961993875C40.37965953125,187.961993875,42.80900953125,187.692967875,45.04471253125,187.445386875C49.020957531250005,187.005057875,52.38467453125,186.632562875,54.04646253125,187.961993875C55.41099553125,189.053619875,54.33706253125,199.899097875,53.31258053125,210.245227875C52.38788653125,219.583598875,51.50347153125,228.515159875,52.48876953125,229.500457875C54.56569253125,231.577384875,92.98876953125,231.577384875,94.54646253125,229.500457875C95.53845953125,228.177802875,95.26698353125,220.748370875,94.93896453125,211.77169387499998C94.75190753125,206.65259187499998,94.54646253125,201.030322875,94.54646253125,195.750457875C94.54646253125,181.211993875,94.02723653125,173.42352987499999,93.50800353125,170.308145875C92.98876953125,167.192759475,89.87339053125,163.558143575,86.23876953125,162.000451375Q82.60415653125,160.442758575,71.18107953124999,159.404296875L26.52723123125,163.558143575L19.77723113125,169.788914875Q18.73876953125,174.461990875,18.73876953125,177.577376875Z" fill="#FFF5EA" fill-opacity="1"/></g><g><path d="M41.5849609375,99.6925344375L44.7003457375,107.48099743750001L44.7003457375,113.1925354375L43.1426533375,118.3848434375L57.1618849375,120.98099743750001Q57.4215009375,118.7742674375,56.6426539375,116.8271504375Q55.863808937499996,114.8800354375,54.0464999375,113.1925354375L54.0464999375,111.6348434375Q60.2772709375,111.6348434375,61.3157329375,111.1156124375C62.3541949375,110.5963824375,62.3541949375,110.0771504375,61.834962937499995,109.0386884375C61.3157329375,108.0002274375,60.7965009375,105.9233034375,60.7965009375,104.8848414375C60.7965009375,104.3828614375,61.2818049375,103.7595544375,61.7245849375,103.1908644375C62.197793937499995,102.5830894375,62.6224349375,102.0376974375,62.3541949375,101.7694574375C61.834962937499995,101.2502274375,60.2772709375,98.6540727375,60.2772709375,97.6156106375L60.2772709375,93.9809951375L55.6041929375,89.8271484375L46.2580385375,91.3848408375L41.5849609375,99.6925344375Z" fill="#E1A0A6" fill-opacity="1"/></g><g><path d="M26.52751803375,85.6724019375C24.96982568375,88.7877864375,25.48901820575,92.4224019375,26.52737200375,95.0185569375C27.56572579375,97.6147119375,30.16198779375,100.21086493749999,31.71967979375,100.73009693750001Q33.27737239375,101.2493249375,34.83526139375,101.2490059375Q35.87352559375,105.9224029375,36.911988593749996,106.96086493749999C37.95044959375,107.9993269375,39.50833859375,109.5566979375,41.58526259375,109.5566979375Q43.662185593749996,109.5566979375,45.73891059375,109.0377879375Q47.16694259375,107.9990849375,46.77757059375,106.4413149375C46.38819459375,104.8835429375,44.70044859375,103.8454799375,44.18121959375,102.2877869375C43.66198759375,100.73009693750001,43.662185593749996,99.6913129375,45.21987759375,99.1720809375C45.99872359375,98.9124659375,46.64771259375,99.4317779375,47.296703593749996,99.9510879375C47.94569159375,100.4703999375,48.59468059375,100.9897099375,49.37352759375,100.73009693750001C50.93121959375,100.21086493749999,53.00814259375,96.0580309375,53.52737459375,95.0185569375C54.046602593749995,93.9790809375,54.30616959375,92.6818449375,55.604295593749995,92.4224019375C56.32241859375,92.2788789375,56.88173059375,92.7712719375,57.41394659375,93.2398099375C57.84380359375,93.6182349375,58.25598159375,93.9810969375,58.71987959375,93.9807879375C59.75814459375,93.9800949375,60.79630659375,93.4606539375,60.79660459375,92.9416329375C60.79690559375,92.4226119375,60.27798059375,88.2689781375,58.20075559375,86.1918435375C56.12352559375,84.1147089375,52.48891259375,83.0764365375,50.41198959375,83.5954780375C49.54189159375,83.8129229375,48.762920593749996,84.2126927375,48.07510159375,84.5656833375C47.12109959375,85.0552806375,46.342449593750004,85.4548859375,45.73921359375,85.1531920375C44.70105559375,84.6339826375,44.18141159375,82.0378873375,43.14295359375,80.9990037375C42.104492593749995,79.9601201975,37.950535593750004,78.9228403875,34.83525939375,79.4417958975C31.71998359375,79.9607513575,28.08521059375,82.5570166375,26.52751803375,85.6724019375Z" fill="#15181D" fill-opacity="1"/></g><g><path d="M70.142822265625,158.8914156375L72.219745365625,159.9298772375Q74.296668565625,159.5404529375,76.373590965625,159.9298772375C78.450514765625,160.3192997375,78.839937165625,162.0067994375,81.565900265625,162.0067994375C84.291860265625,162.0067994375,85.979360265625,161.6173764375,88.835130265625,160.9683384375C91.690899265625,160.3192997375,92.599552265625,160.0596838375,93.508207265625,159.4106464375C94.416860265625,158.7616071375,91.950515265625,158.3721838375,91.431284265625,158.3721838375C90.912054265625,158.3721838375,90.054105265625,158.5528473375,88.835130265625,158.5528473375C87.616155265625,158.5528473375,86.113986265625,158.1400995375,85.200514265625,157.8529534375C84.287043265625,157.5658073375,83.258723265625,156.9434347375,82.174372265625,155.9982729375C81.344058265625,155.2745370375,81.802760265625,153.6713626375,82.380366265625,152.9621288375C82.629417265625,152.6563232375,83.170752265625,152.3625086375,83.684433265625,152.0837038375C84.362095265625,151.7158966375,84.991627265625,151.3742117275,84.838472265625,151.0655799475Q84.306491265625,149.9935501775,78.450514765625,151.6221828475L75.854361065625,152.1414138375L73.258206565625,152.6606447375L70.662053045625,152.6606447375L70.142822265625,158.8914156375Z" fill="#E1A0A6" fill-opacity="1"/></g><g><path d="M104.309814453125,118.906899475L105.348276053125,124.618437775Q108.463660753125,123.190962775,111.059814453125,123.061291175C112.499266653125,122.989393275,113.300228153125,123.156845075,114.082225753125,123.320332575C114.710616453125,123.451705975,115.326761453125,123.580519675,116.252122453125,123.580519675C118.329045453125,123.580519675,119.367507453125,124.099749575,119.886737453125,124.099749575C119.982393453125,124.099749575,120.161752453125,124.117367775,120.388294453125,124.139619875C121.391458453125,124.238158275,123.319805453125,124.427574175,123.002122453125,123.580519675C122.807411453125,123.061350375,121.055007453125,123.320905675,119.886737453125,122.542058975C118.718469453125,121.763213175,118.329045453125,121.503597775,118.329045453125,120.465136075C118.329045453125,119.426674375,119.367507453125,118.907441375,120.405969453125,118.388211275C120.925199453125,118.128595875,122.445085453125,117.684239375,124.273071453125,117.824807375C126.101059453125,117.965375675,128.237150453125,118.690868175,128.713663453125,118.690868175C129.666685453125,118.690868175,129.752122453125,117.868413675,128.713663453125,117.349184075C127.675201453125,116.829952975,125.767635453125,116.309977675,123.606794453125,115.758789125C121.445951453125,115.207600775,118.329045453125,114.886796075,117.357008453125,115.273121345C116.384972453125,115.659446595,116.122315453125,116.310998875,113.136737853125,117.349460075Q110.151161153125,118.387922075,106.905968453125,118.387669275L104.309814453125,118.906899475Z" fill="#E1A0A6" fill-opacity="1"/></g><g><path d="M21.46745251875,162.6200446875C19.92418184875,167.13475768749998,17.98934451875,172.7949636875,21.33532311875,177.57505068749998C24.96984811875,182.7673566875,31.71987321875,182.7673566875,36.39294821875,182.2481306875C36.39294821875,177.57505068749998,36.75815221875,170.1161806875,40.65973521875,166.5464706875C44.56131721875,162.9767536875,53.00819821875,163.0386156875,57.16204421875,162.5183716875Q61.31589121875,161.9981306875,73.25833121875,161.4788966875L73.25833121875,150.5750506875L68.58525821875,150.5750506875Q68.06602821875,147.45966368749998,67.54679521874999,133.9596636875Q84.16217821875,132.9212016875,90.39295221875,131.3635086875Q96.62371821875,129.8058166875,111.16218521875,125.1327386875L111.16218521875,116.3058144875Q104.93141221875,116.8250453875,100.77756521875,117.3442763875C96.62371821875,117.8635072875,91.43128221875,119.9414443875,84.16204821875,119.9414443875C76.89281421875,119.9414443875,68.58512521875,116.3058144875,62.87371821875,114.7481222875Q57.16231521875,113.1904296875,54.04666121875,113.1904296875Q55.60421721875,114.7491362875,56.12358521875,116.3068289875C56.64294821875,117.8645209875,56.51303821875,117.9940752875,54.56589121875,117.8645209875C52.61874721875,117.7349671875,50.282184218750004,116.9558672875,47.81589121875,115.7875978875C45.34959621875,114.61932858750001,44.70050621875,113.1904296875,43.66238421875,113.1904296875C42.62426421875,113.1904296875,34.83510921875,116.3058144875,31.719724218750002,120.4596609875C28.60433961875,124.6135086875,26.52767041875,129.8058166875,26.52767041875,134.9981246875C26.52767041875,136.7485636875,26.58664131875,138.4990046875,26.64494181875,140.2295496875C26.759577718750002,143.6322996875,26.87162211875,146.9581336875,26.52767041875,150.0558166875C26.00879381875,154.7288966875,23.41151571875,156.8058206875,21.85433931875,161.4788966875C21.73071431875,161.8498956875,21.60053941875,162.2307126875,21.46745251875,162.6200446875Z" fill="#9FB1A8" fill-opacity="1"/></g><g><path d="M81.8505859375,228.3390926875Q83.9662995375,239.9751366875,83.9662995375,240.7681806875Q83.9662995375,240.7934566875,83.9737324375,240.8163166875Q84.1995062375,241.5106716875,91.2831945375,239.9751366875L91.2831945375,226.4873046875L81.8505859375,228.3390926875Z" fill="#E1A0A6" fill-opacity="1"/></g><g><path d="M62.10400390625,228.07421875L63.16198730625,246.14588575L70.30242540625,245.44005575L72.32990890625,228.95549136L62.10400390625,228.07421875Z" fill="#E1A0A6" fill-opacity="1"/></g><g transform="matrix(-1,0,0,1,173.1337890625,0)"><path d="M86.56689453125,252.06722L112.70028853125,251.547989Q114.91498153124999,251.547989,115.35791953125,249.990296C115.80085953125,248.4326029,114.02910453125,241.1633714,113.58616253125,240.64414060000001C113.14322653125001,240.12490976,111.37146953125,240.64414060000001,110.92853353125,241.1633714C110.48559353125,241.6826022,107.82803953125,242.9998877,106.49921953124999,242.9998877C105.17040653125,242.9998877,101.62681553125,240.1248498,101.18387653125001,239.60561901C100.74093853125,239.0863882,99.85506053125,239.60567893,99.41212153125,240.12490976C98.96918153125,240.64414060000001,97.19742653125,243.7595258,94.98273273125,245.3172178C92.76803823125,246.8749108,87.45277226125,249.471065,87.00983339125,249.990296Q86.56689453125,250.509527,86.56689453125,252.06722Z" fill="#3E3E45" fill-opacity="1"/></g><g><path d="M225.71939359375,264.8043571C225.35559359375,265.5895059,214.90860359375,269.6936598,210.04156359375,271.3395815C205.17454359375,272.9855032,180.43046359375,279.736517,164.54042359375,281.562954C148.65039359374998,283.389389,140.54539359375002,282.699503,123.96924559375,282.699501C107.39720159375,282.699505,70.09923559375,277.582494,65.99178659374999,276.867537C47.92970459375,273.723591,35.15444949375,270.0916791,33.99400429375,269.6368446C31.67311479375,268.7271762,27.09221459375,267.0984943,26.10071104375,265.7253742C25.10920816375,264.35225296,27.01352099375,265.2213548,28.39933129375,265.2213548C29.78514199375,265.2213548,31.78193859375,266.7597787,35.37294769375,267.8601012C37.16845359375,268.4102631,63.86897259375,273.594964,70.66764859375,274.701371C77.46633159375,275.80778,105.45884659375,280.304401,123.96917759375,280.304401C156.76571359375,280.304401,153.52375359375,279.656376,164.54042359375,278.477964C175.55709359375,277.299554,219.40347359375,264.9146202,222.06640359375,263.92226431C224.72937359375,262.92990863,226.08322359375,264.01920795,225.71939359375,264.8043571Z" fill-rule="evenodd" fill="#F2E0D3" fill-opacity="1"/></g><g transform="matrix(-1,0,0,1,213.9130859375,0)"><path d="M107.88234758875,243.776792C106.99646982175,244.2960229,106.55356657875,246.3729467,107.43939718875,246.3729467L131.80091296875,246.3729467C132.55136696875,244.6135259,132.34822696875,243.9719462,131.99930596875,242.8699503C131.93633796875,242.6710854,131.86862596875,242.4572268,131.80091296875,242.2190995C131.58826296875,241.4712672,131.60415996875,240.6973217,131.61745996875,240.049783C131.63186296875,239.3485357,131.64322296875,238.79553401,131.35797496875,238.58448428C130.66543996875,238.072087023,129.84051096875,238.40544897,128.82872596875,238.81432253C127.98572196875,239.1549898,127.01299896875,239.5480771,125.87905696875,239.5480771C125.11541796875,239.5480771,124.56881296875,239.2029651,123.99682196875,238.84182447C123.29874196875,238.40107453,122.56284796875,237.93645024,121.34846496875,238.0461613587C120.32564896875,238.138565682,117.18393096875,241.180397,115.41214756875,242.2190995C113.64036366875,243.2578025,108.76822516875,243.2575612,107.88234758875,243.776792Z" fill="#3E3E45" fill-opacity="1"/></g><g><g><path d="M229.2732762859375,175.716483124C226.6953532659375,176.636998525,226.6921196559375,184.718565025,228.4274009859375,190.264801125C230.1626822859375,195.81103712499998,235.1245307859375,203.040718125,238.0533170859375,201.941410125C240.9821020859375,200.842100125,240.1923490859375,193.854776125,238.5233560859375,187.492826125C236.8543653859375,181.130876025,231.8511995859375,174.795967755,229.2732762859375,175.716483124Z" fill="#75A394" fill-opacity="1"/></g><g transform="matrix(0.5229611992835999,0.852356493473053,-0.852356493473053,0.5229611992835999,278.90662288897147,-130.63175704599416)"><path d="M257.773204703125,183.9380328055C255.747422363125,184.7969675075,255.744881303125,192.3378924875,257.108499233125,197.5130961875C258.472117203125,202.6883011875,262.371233903125,209.4343301875,264.672731403125,208.4085621875C266.974228703125,207.3827951875,266.353625703125,200.8629071875,265.042099003125,194.9265621875C263.730571703125,188.9902128875,259.798986903125,183.0790981675,257.773204703125,183.9380328055Z" fill="#75A394" fill-opacity="1"/></g><g transform="matrix(0.0912087932229042,0.9958317875862122,-0.9958317875862122,0.0912087932229042,433.4252755077978,-68.44687447015167)"><path d="M256.1017033875,203.3114428665C253.7347635675,203.9933796575,253.7317945375,209.9803700875,255.3250563875,214.0891371875C256.9183182875,218.1979021875,261.4740762875,223.5537981875,264.1631641875,222.7394081875C266.8522501875,221.9250161875,266.1271331875,216.7486651875,264.5947361875,212.0356015875C263.0623368875,207.3225369875,258.4686426875,202.6295062275,256.1017033875,203.3114428665Z" fill="#75A394" fill-opacity="1"/></g><g transform="matrix(-0.04997151717543602,0.998750627040863,-0.998750627040863,-0.04997151717543602,480.60083725216646,-20.571649654255452)"><path d="M251.97230885625,218.3583178665C249.60536903625,219.0402546575,249.60240000625,225.0272450875,251.19566185625,229.1360121875C252.78892375625,233.2447771875,257.34468175625,238.6006731875,260.03376965625,237.7862831875C262.72285565625,236.9718911875,261.99773865625,231.7955401875,260.46534165625,227.0824765875C258.93294235625,222.3694119875,254.33924815625,217.6763812275,251.97230885625,218.3583178665Z" fill="#75A394" fill-opacity="1"/></g><g transform="matrix(-0.18328233063220978,0.9830603003501892,-0.9830603003501892,-0.18328233063220978,526.9793216636826,29.79774233077478)"><path d="M253.93074200625,233.8985430445C251.77505260625,234.0754958075,250.98948637625,237.3155448375,251.12636198525,239.7443685375C251.30695485625,242.9489441375,252.72870670625,247.1352949375,253.89505080625,249.1524809375C256.10092070625,252.9675259375,260.11503220625,257.4734059375,262.80411640625,256.6590179375C264.14865940625,256.2518249375,264.09715240625,254.1644749375,263.84055040625,251.9692079375C263.58394740625,249.7739389375,262.72227040625,244.2164949375,261.95607240625,241.8599634375C261.18987240625,239.5034313375,259.66954710625,236.4743032375,258.05068680625,234.9983205375C256.57293370625,233.6509893675,255.38286780625,233.7630725545,254.25296470625,233.8694895055C254.14507460625,233.8796508465,254.03773310625,233.8897605315,253.93074200625,233.8985430445Z" fill="#75A394" fill-opacity="1"/></g><g transform="matrix(-0.18328233063220978,0.9830603003501892,-0.9830603003501892,-0.18328233063220978,534.1126569386834,48.49643130203185)"><path d="M247.4201861625,248.6451437375C247.0593640025,249.8970444375,246.7488394725,252.4607801375,247.0052739535,253.8303532375C247.5959758725,256.9851909375,247.8500245225,258.5550859375,249.0163689125,260.5722729375C251.2222376125,264.3873199375,255.2363491125,268.8932019375,257.9254328125,268.0788119375C259.2699768125,267.6716189375,259.2184698125,265.5842689375,258.9618678125,263.3890039375C258.7052638125,261.1937299375,257.8435868125,255.6362867375,257.0773888125,253.2797536375C256.3111906125,250.9232216375,255.1558809125,249.6477129375,253.5370207125,248.1717305375C251.9181623125,246.6957475575,250.4285011125,246.0250857475,249.2010219125,246.1258451035C248.1231767125,246.2143214945,247.7810084825,247.3932434375,247.4201861625,248.6451437375Z" fill="#75A394" fill-opacity="1"/></g><g transform="matrix(0.9738800525665283,-0.22706305980682373,0.22706305980682373,0.9738800525665283,-38.10720234015025,54.56456159072695)"><path d="M220.47000553125,192.9389612155C217.80190381125,193.4473595575,217.24629903125,201.9211854875,219.59786413125,207.6110161875C221.94942923125,213.3008481875,227.60602473125,219.1364881875,229.64870753125,217.8911631875C231.69139153125,216.6458361875,231.22996653125,209.4394801875,229.94202953125,205.1558261875C228.65409353125,200.8721718875,223.13810733125,192.4305628875,220.47000553125,192.9389612155Z" fill="#75A394" fill-opacity="1"/></g><g transform="matrix(0.8321511149406433,-0.554548978805542,0.554548978805542,0.8321511149406433,-87.19992077743518,146.9097152527538)"><path d="M200.69684295625,217.5620023345C198.40182524625,218.3646061375,198.60560631625,227.9948446875,200.99727895625,234.5381296875C203.38895225625,241.0814136875,208.06872845625,247.70347168749998,209.97173065625,246.9094146875C211.87473065625,246.1153566875,213.74476865625,238.5694176875,211.83872565625,231.4239056875C209.93268165625,224.2783975875,202.99186085625,216.7593984575,200.69684295625,217.5620023345Z" fill="#75A394" fill-opacity="1"/></g><g transform="matrix(0.8321511149406433,-0.554548978805542,0.554548978805542,0.8321511149406433,-96.77355736774916,148.47509112139232)"><path d="M198.056590421875,234.2013505175C195.858399821875,234.9748389075,196.969074993875,241.0579767375,199.572252521875,246.4799249375C202.175426921875,251.9018749375,207.068372921875,259.0001509375,209.071776921875,258.2336639375C211.075184921875,257.4671749375,215.998141921875,250.1823369375,210.565026921875,243.7772417375C205.131911321875,237.3721459375,200.254780721875,233.4278621075,198.056590421875,234.2013505175Z" fill="#75A394" fill-opacity="1"/></g><g transform="matrix(0.9237572550773621,-0.38297852873802185,0.38297852873802185,0.9237572550773621,-62.64030032057781,95.93259007307643)"><path d="M212.28448673125,205.3139612155C209.61638514795,205.8223595575,208.57950273125,211.4957933875,210.93106783125,217.1856241875C212.10685043125,220.03053818749999,214.77829213125,222.03823818749999,215.68755623125,224.7002731875C217.08628563125,228.7953011875,219.79503603125,230.9645001875,220.81637903125,230.3418391875C222.85906303125,229.0965121875,223.04444803125,221.8144821875,221.75651203125,217.5308271875C220.46857603125,213.2471723875,214.95258903125,204.8055628575,212.28448673125,205.3139612155Z" fill="#75A394" fill-opacity="1"/></g><g><path d="M240.1120719375,201.764941Q242.1381869375,194.3709126,244.9789279375,186.34655502L243.02107093749999,185.65344498Q240.1550869375,193.7491112,238.1089899375,201.216056Q237.7358439375,202.577797,237.13230293750001,204.808455Q235.3201319375,211.506153,233.8949039375,215.249777Q233.07504893750001,217.403282,229.8060450375,224.449219Q226.05450013749999,232.535213,225.2359643375,234.864826Q223.9459765375,238.53620899999999,222.5909360375,244.669403Q221.0933747375,251.447678,221.0933747375,254.577797L221.0933743375,268.696411L223.1702975375,268.696411L223.1702978375,254.577797Q223.1702978375,251.674377,224.6189525375,245.117466Q225.9469752375,239.10656,227.1954527375,235.55331Q227.9807300375,233.318356,231.6900711375,225.323326Q234.9899489375,218.210842,235.8359219375,215.988739Q237.2979499375,212.148453,239.1371379375,205.350897Q239.7397209375,203.123779,240.1120719375,201.764941Z" fill-rule="evenodd" fill="#D9D9D8" fill-opacity="1"/></g><g><path d="M237.79206884375,266.1455078125L207.76440434375,266.1455078125L207.76440434375,274.3035097125C203.19045684375,278.4157288125,200.31396484375,284.3788258125,200.31396484375,291.0137658125C200.31396484375,297.2170148125,202.82832904375,302.8330078125,206.89350604375,306.8981858125C208.92609504375,308.9307748125,211.34638684375,310.57565681250003,214.03393884375,311.7123908125C216.64577084375,312.8171048125,219.51013384375,312.8162228125,222.51624884375,312.8152958125C222.60339784375,312.8152698125,222.69066584375,312.8152428125,222.77805184375,312.8152428125C222.86543684375,312.8152428125,222.95270584375,312.8152698125,223.03985384375,312.8152958125C226.04595384375,312.8162228125,228.91007984375,312.8171048125,231.52191384374999,311.7123908125C234.20946484375,310.57565681250003,236.62975284375,308.9307748125,238.66234584375002,306.8981858125C242.72752384375,302.8330078125,245.24188584375,297.2170148125,245.24188584375,291.0137658125C245.24188584375,284.3791258125,242.36565384375,278.4162688125,237.79206884375,274.3040676125L237.79206884375,266.1455078125Z" fill-rule="evenodd" fill="#F3BC9E" fill-opacity="1"/></g><g><rect x="207.755615234375" y="272.6318359375" width="29.990650177001953" height="1.70676851272583" rx="0" fill="#D59877" fill-opacity="1"/></g><g transform="matrix(0.9210734963417053,0.38949406147003174,-0.38949406147003174,0.9210734963417053,83.42033703562629,-81.79038183999364)"><path d="M245.235588096875,164.9263237115C242.930666536875,165.6648697275,242.927775356875,172.1488551875,244.479290696875,176.5986981875C246.030806096875,181.0485461875,250.467194996875,186.8490471875,253.085823996875,185.9670521875C255.704451796875,185.08505618750002,254.998332796875,179.4789991875,253.506087796875,174.3746947875C252.013840696875,169.2703885875,247.540509196875,164.1877777575,245.235588096875,164.9263237115Z" fill="#75A394" fill-opacity="1"/></g></g><g><path d="M52.193644284375,30.1147865C51.674314674375,31.6732895,50.636398374375,34.7880655,53.232069334375,36.3455565C55.828078234375,37.9032475,58.424260634375,35.307094500000005,58.424260634375,30.1147865Q58.424260634375,24.9224772,61.020423934375,20.76863L57.905038334375,19.2109375Q56.996412234375,22.3263226,55.828115434375,24.9224772C54.659818434375,27.518631,52.712703334375,28.5570927,52.193644284375,30.1147865Z" fill="#066F61" fill-opacity="1"/></g><g><path d="M75.039627103125,26.48046875C72.443354803125,28.03798935,68.808518413125,33.22945545,69.847175613125,35.30637835C70.461425123125,36.534645749999996,71.438630303125,35.58376505,72.779079203125,34.27942565C73.705244503125,33.37820955,74.804820503125,32.30825475,76.077901403125,31.67176295Q79.193527203125,30.11407015,81.78962720312501,28.03816105Q78.155010203125,26.99969953,75.039627103125,26.48046875Z" fill="#6A74B5" fill-opacity="1"/></g><g><path d="M152.92445969375,21.28816115Q150.45811367375,25.70162345,150.84753674675,28.55739305C151.23695984375,31.41316175,152.92445969375,32.71123875,154.48215199375,32.71123875C156.03984449375,32.71123875,156.29945989375,29.07662395,156.55907539375,25.961238350000002Q156.81869079375,22.84585355,156.03984449375,19.73046875L152.92445969375,21.28816115Z" fill="#E6AA83" fill-opacity="1"/></g><g><path d="M116.0590102125,35.8274497875C115.5398483765,37.9043731875,115.0208784325,44.6543736875,117.0976793625,45.692836687500005C118.2121322625,46.2500956875,118.4294664625,44.8636186875,118.7125246625,43.0578586875C118.9569499625,41.498554687500004,119.2503828625,39.6266106875,120.2127876625,38.4236039875C122.2897105625,35.8274497875,126.4435575625,37.3851422875,128.0012505625,34.2697572875C129.5589415625,31.1543721875,126.4436255625,29.5966796875,124.8859329625,29.5966796875C123.3282413625,29.5966796875,121.7705488625,30.1155520075,120.2128562625,30.6351413875C118.6551642625,31.1547307875,116.5781720325,33.7505263875,116.0590102125,35.8274497875Z" fill="#75A394" fill-opacity="1"/></g><g><path d="M109.332207109375,31.584369625Q141.65525810937498,30.135656625,173.959932109375,10.830474075L173.427212109375,9.939057175Q141.347259109375,29.109956625,109.285698109375,30.546949625Q77.258991109375,31.982381625,43.129032019375,9.948542235L42.565792199375,10.820989015Q76.974293109375,33.034646625,109.332207109375,31.584369625Z" fill-rule="evenodd" fill="#E6AA83" fill-opacity="1"/></g></g></svg>