<svg xmlns="http://www.w3.org/2000/svg" xmlns:xlink="http://www.w3.org/1999/xlink" fill="none" version="1.1" width="24.23614501953125" height="24" viewBox="0 0 24.23614501953125 24"><g><path d="M17.95174,5.9091797L21.919464,9.8771935C22.179813,10.13756,22.601936,10.137568,22.862293,9.8772116L24.040884,8.6986179C24.301235,8.4382687,24.301235,8.0161591,24.040884,7.7558093L16.658817,0.37374276C16.028856,-0.25621781,14.951721,0.18993807,14.95171,1.0808368L14.951424,23.333326C14.951419,23.701519,15.249897,24,15.618091,24L17.28476,24C17.652946,24,17.95142,23.70153,17.951427,23.333347L17.95174,5.9091797ZM6.2845855,18.044922L2.316555,14.077183C2.0561955,13.816843,1.6340849,13.816858,1.373745,14.077217L0.19524404,15.255809C-0.065088451,15.516162,-0.065080367,15.938257,0.19526216,16.198601L7.5773468,23.580687C8.2073078,24.210646,9.2844429,23.764492,9.2844543,22.873592L9.2847404,0.66667527C9.2847443,0.29848212,8.9862661,0,8.6180725,0L6.9514093,0C6.5832214,0,6.2847457,0.29847306,6.2847424,0.66666067L6.2845855,18.044922Z" fill-rule="evenodd" fill="#15181D" fill-opacity="1"/></g></svg>